<svg xmlns="http://www.w3.org/2000/svg" xmlns:xlink="http://www.w3.org/1999/xlink" id="Layer_1" x="0px" y="0px" viewBox="0 0 544 160" style="enable-background:new 0 0 544 160;" xml:space="preserve"><style type="text/css">	.st0{fill:#FF1F8A;}	.st1{fill:#FFFFFF;}</style><g>	<path class="st0" d="M0,135.9h68.6V90.5c0-1.8-0.6-3.7-1.6-5.2c-1-1.5-2.5-2.7-4.2-3.4c-1.7-0.7-3.6-0.9-5.5-0.5  c-1.8,0.4-3.5,1.3-4.8,2.6L0,135.9z"></path>	<path class="st0" d="M68.6,45.4V0H0l52.5,52c1.3,1.3,3,2.2,4.8,2.6c1.8,0.4,3.7,0.2,5.5-0.5s3.2-1.9,4.2-3.4  C68.1,49.1,68.6,47.3,68.6,45.4L68.6,45.4z"></path>	<path class="st0" d="M94.9,0h-26l76.8,68C145.7,68,148.7,0,94.9,0z"></path>	<path class="st0" d="M90.6,135.9c57.7,0,55-68,55-68l-76.8,68H90.6z"></path>	<path class="st1" d="M454.9,13.9h-22.9v107.4h22.9V13.9z"></path>	<path class="st1" d="M528.8,123.9L544,44.1h-23.4c0,0-7.9,42.2-8.7,47.4c-0.8,5.2-3.9,9.4-8.9,9.4s-7.6-4.7-7.6-11.6V44.1h-21.8  v77.3h23.5c6,0,7.9,3.8,7.9,7.7c0,18.7-37.8,6.7-37.8,6.7v21.8c0,0,6.7,2.4,24.3,2.4C525.2,160,528.8,123.9,528.8,123.9z"></path>	<path class="st1" d="M305.7,40.5c-20.6,0-34.6,11-34.6,40.4c0,29.5,11.4,43,34.6,43c23.1,0,33.7-18,33.7-43  C339.5,55.9,328.6,40.5,305.7,40.5z M305.3,100.9c-10.2,0-12.7-10.7-12.7-19.5s2.5-19.7,12.7-19.7c11.6,0,12.9,9.8,12.9,19.7  C318.3,91.4,315.5,100.9,305.3,100.9z"></path>	<path class="st1" d="M383.4,40.5c-20.6,0-34.6,11-34.6,40.4c0,29.5,11.4,43,34.6,43c23.1,0,33.7-18,33.7-43  C417.1,55.9,406.3,40.5,383.4,40.5z M383,100.9c-10.2,0-12.7-10.7-12.7-19.5s2.5-19.7,12.7-19.7c11.6,0,12.9,9.8,12.9,19.7  C395.9,91.4,393.1,100.9,383,100.9z"></path>	<path class="st1" d="M220.5,13.9H180v107.4h37.4c30.4,0,43.5-24.9,43.5-53.7C260.9,33,245.3,13.9,220.5,13.9z M214.3,100.9  c-10.9,0-12.3-9.7-12.3-14.9V50.4c0-7.5,2.8-15.4,12.8-15.4c11.8,0,23.3,7.2,23.3,32.7C238.1,95.1,226.3,100.9,214.3,100.9z"></path></g></svg>