<svg xmlns="http://www.w3.org/2000/svg" width="24" height="24" viewBox="0 0 24 24" fill="none"><g clip-path="url(#clip0_1341_813)"><path d="M12 0C5.3736 0 0 5.3736 0 12C0 18.6264 5.3736 24 12 24C18.6264 24 24 18.6264 24 12C24 5.3736 18.6264 0 12 0ZM14.0928 9.8976C14.0928 9.372 14.196 8.9328 14.4072 8.592C14.6184 8.2512 14.9832 7.9416 15.5088 7.6752L15.7512 7.5576C16.1784 7.3416 16.2888 7.1568 16.2888 6.9336C16.2888 6.6672 16.0608 6.4752 15.6888 6.4752C15.2496 6.4752 14.916 6.7032 14.6856 7.1688L14.0928 6.5736C14.2224 6.2952 14.4312 6.072 14.712 5.8992C14.9907 5.72149 15.3151 5.62891 15.6456 5.6328C16.0728 5.6328 16.4448 5.7432 16.7472 5.9736C17.0496 6.204 17.2128 6.5184 17.2128 6.9192C17.2128 7.5576 16.8528 7.9488 16.1784 8.2944L15.8016 8.4864C15.3984 8.6904 15.1992 8.8704 15.144 9.192H17.1936V10.0416H14.0928V9.8976ZM12.1224 18.8568C8.3352 18.8568 5.2656 15.7872 5.2656 12C5.2656 8.2128 8.3352 5.1432 12.1224 5.1432C12.5728 5.14313 13.0222 5.18735 13.464 5.2752L12.1224 8.0808C9.9624 8.0808 8.2032 9.84 8.2032 12C8.2032 14.16 9.9624 15.9192 12.1224 15.9192C13.0601 15.9191 13.9664 15.5817 14.676 14.9688L16.1592 17.5416C14.988 18.3987 13.5737 18.8595 12.1224 18.8568ZM16.92 16.8984L15.2232 13.9584H11.8296L13.5264 11.0208H16.92L18.6168 13.9584L16.92 16.8984Z" fill="#FF8EAA"></path></g><defs><clipPath id="clip0_1341_813"><rect width="24" height="24" fill="white"></rect></clipPath></defs></svg>