<svg xmlns="http://www.w3.org/2000/svg" width="40" height="40" viewBox="0 0 40 40" fill="none"><g clip-path="url(#clip0_1424_1292)"><path d="M30.5264 9.47375L21.0529 8.42114L9.47382 9.47375L8.42102 20.0002L9.47362 30.5266L20 31.8424L30.5264 30.5266L31.5791 19.7372L30.5264 9.47375Z" fill="white"></path><path d="M13.7921 25.8055C13.0053 25.2738 12.4605 24.4977 12.1631 23.4713L13.9895 22.7187C14.1553 23.3503 14.4446 23.8397 14.8579 24.1871C15.2685 24.5345 15.7685 24.7055 16.3526 24.7055C16.9501 24.7055 17.4633 24.5238 17.8921 24.1607C18.3209 23.7975 18.5369 23.3343 18.5369 22.7738C18.5369 22.2003 18.3105 21.7317 17.8579 21.3687C17.4053 21.0057 16.8369 20.8238 16.1579 20.8238H15.1026V19.0161H16.0499C16.6341 19.0161 17.1263 18.8583 17.5263 18.5424C17.9263 18.2267 18.1263 17.7951 18.1263 17.2451C18.1263 16.7557 17.9473 16.3661 17.5895 16.0741C17.2316 15.7821 16.7789 15.6347 16.2289 15.6347C15.6921 15.6347 15.2656 15.7768 14.9499 16.0637C14.6341 16.3504 14.4051 16.7031 14.2605 17.1188L12.4527 16.3663C12.6921 15.6873 13.1316 15.0873 13.7763 14.5688C14.4211 14.0504 15.2446 13.7898 16.2446 13.7898C16.9841 13.7898 17.6499 13.932 18.2395 14.2188C18.8289 14.5057 19.2921 14.903 19.6263 15.4083C19.9605 15.9161 20.1263 16.4847 20.1263 17.1161C20.1263 17.7608 19.9711 18.3054 19.6605 18.7528C19.3499 19.2003 18.9683 19.5423 18.5156 19.7818V19.8897C19.1131 20.1397 19.5999 20.5213 19.9841 21.0344C20.3656 21.5477 20.5577 22.1608 20.5577 22.8767C20.5577 23.5925 20.3761 24.2318 20.0129 24.7925C19.6496 25.3531 19.1471 25.7951 18.5103 26.1161C17.8709 26.4371 17.1525 26.6003 16.3551 26.6003C15.4315 26.6028 14.5789 26.3371 13.7921 25.8055Z" fill="#1A73E8"></path><path d="M25.0001 16.7425L23.0052 18.1925L22.0027 16.6715L25.6001 14.0767H26.9791V26.3162H25.0001V16.7425Z" fill="#1A73E8"></path><path d="M30.5264 40.0001L40.0001 30.5264L35.2632 28.4211L30.5264 30.5264L28.4211 35.2632L30.5264 40.0001Z" fill="#EA4335"></path><path d="M7.36816 35.2629L9.47337 39.9998H30.5261V30.5261H9.47337L7.36816 35.2629Z" fill="#34A853"></path><path d="M3.15781 0C1.4132 0 0 1.4132 0 3.15781V30.5263L4.73681 32.6315L9.47363 30.5263V9.47363H30.5263L32.6315 4.73681L30.5265 0H3.15781Z" fill="#4285F4"></path><path d="M0 30.5261V36.8419C0 38.5868 1.4132 39.9998 3.15781 39.9998H9.47363V30.5261H0Z" fill="#188038"></path><path d="M30.5262 9.47337V30.5261H39.9999V9.47337L35.263 7.36816L30.5262 9.47337Z" fill="#FBBC04"></path><path d="M39.9999 9.47363V3.15781C39.9999 1.413 38.5866 0 36.842 0H30.5262V9.47363H39.9999Z" fill="#1967D2"></path></g><defs><clipPath id="clip0_1424_1292"><rect width="40" height="40" fill="white"></rect></clipPath></defs></svg>