<svg xmlns="http://www.w3.org/2000/svg" width="40" height="40" viewBox="0 0 40 40" fill="none"><path d="M38.0379 17.1006H27.1908C26.571 17.1006 26.0988 17.7351 26.32 18.3255L28.9323 25.0846C29.0503 25.3799 28.8141 25.7045 28.4895 25.6898L25.1541 25.4831C25.0066 25.4684 24.859 25.5421 24.7705 25.675L22.173 29.3498C22.0403 29.5564 21.7599 29.6301 21.5385 29.4825L17.7014 26.8704C17.5538 26.7671 17.3473 26.7671 17.1996 26.8704L11.8867 30.4714C11.5473 30.7075 11.0898 30.3828 11.2079 29.9844L12.6837 24.6863C12.7427 24.4649 12.6394 24.2435 12.418 24.1549L9.59926 23.0038C9.31885 22.8858 9.2303 22.5463 9.42215 22.3101L11.9163 19.2405C12.0343 19.0929 12.0491 18.8715 11.931 18.7093L9.83538 15.6839C9.64353 15.4034 9.82062 15.0198 10.1748 14.9903L13.4216 14.7393C13.6577 14.7245 13.8496 14.5179 13.8348 14.267L13.5839 9.72159C13.5692 9.39692 13.8938 9.16079 14.2037 9.27886L18.2326 10.9465C18.4098 11.0203 18.6164 10.976 18.7345 10.8284L21.509 7.72925C21.7304 7.47838 22.1288 7.55217 22.2616 7.84733L23.9293 12.1419C24.1506 12.6731 24.8148 12.865 25.287 12.5109L31.81 7.65547C32.5479 7.10943 32.0756 5.92878 31.1606 6.0616L26.8661 6.63717C26.6595 6.66667 26.4676 6.54862 26.3939 6.35677L24.1359 0.556869C23.885 -0.0482096 23.1029 -0.19579 22.6601 0.291224L17.7456 5.61887C17.6129 5.75169 17.421 5.79597 17.2439 5.72217L10.7799 2.99194C10.2043 2.75581 9.56973 3.15428 9.54022 3.78888L9.30409 10.4595C9.28933 10.6956 9.11224 10.8727 8.89087 10.8875L2.98766 11.2712C2.29404 11.3155 1.92509 12.0976 2.3088 12.6584L6.23443 18.4436C6.35249 18.6059 6.33773 18.8273 6.20492 18.9896L2.22025 23.5646C1.82178 24.0221 1.98412 24.7305 2.54492 24.9666L7.1199 26.9441C7.32652 27.0328 7.42983 27.2541 7.37079 27.4608L4.4487 38.8834C4.24209 39.6951 5.15709 40.3149 5.83596 39.8279L16.8159 31.9471C16.9635 31.8439 17.1701 31.8291 17.3325 31.9471L22.3354 35.4595C22.7486 35.7548 23.3094 35.6366 23.5899 35.2234L26.7185 30.427C26.8071 30.2795 26.9841 30.2058 27.1465 30.2353L34.6289 31.1355C35.2339 31.224 35.839 30.7223 35.6176 30.1614L32.5036 22.1035C32.4151 21.8821 32.5036 21.646 32.7693 21.5133L38.4511 18.8273C39.2924 18.3993 38.9971 17.1006 38.0379 17.1006Z" fill="#8039E9"></path></svg>