<svg xmlns="http://www.w3.org/2000/svg" width="40" height="40" viewBox="0 0 40 40" fill="none"><g clip-path="url(#clip0_1424_1293)"><path d="M20.0006 29.9992C25.5238 29.9992 30.0012 25.5218 30.0012 19.9986C30.0012 14.4755 25.5238 9.99805 20.0006 9.99805C14.4774 9.99805 10 14.4755 10 19.9986C10 25.5218 14.4774 29.9992 20.0006 29.9992Z" fill="white"></path><path d="M11.3398 25.0014L2.6804 10.0029C0.92457 13.0432 0.000121137 16.492 1.19041e-08 20.0028C-0.000121113 23.5137 0.924094 26.9626 2.67971 30.0029C4.43533 33.0432 6.96048 35.5678 10.0012 37.3226C13.042 39.0775 16.4911 40.0009 20.0019 39.9999L28.6613 25.0014V24.9988C27.7843 26.5198 26.5222 27.7829 25.002 28.6613C23.4818 29.5396 21.757 30.0022 20.0013 30.0024C18.2456 30.0027 16.5207 29.5408 15.0003 28.6627C13.4798 27.7849 12.2173 26.5221 11.3398 25.0014Z" fill="url(#paint0_linear_1424_1293)"></path><path d="M28.6604 25.001L20.0012 39.9994C23.5119 39.9999 26.961 39.0761 30.0015 37.3207C33.042 35.5655 35.5667 33.0406 37.322 30C39.0772 26.9594 40.0009 23.5103 40.0002 19.9995C39.9996 16.4887 39.0747 13.04 37.3185 10H19.9997L19.9976 10.0013C21.7533 10.0005 23.4783 10.4619 24.999 11.3393C26.5198 12.2166 27.7828 13.4789 28.6608 14.9993C29.5389 16.5197 30.0012 18.2445 30.0012 20.0002C30.0012 21.7559 29.5386 23.4807 28.6604 25.001Z" fill="url(#paint1_linear_1424_1293)"></path><path d="M20.0003 27.9181C24.3728 27.9181 27.9175 24.3735 27.9175 20.001C27.9175 15.6285 24.3728 12.0837 20.0003 12.0837C15.6278 12.0837 12.0833 15.6285 12.0833 20.001C12.0833 24.3735 15.6278 27.9181 20.0003 27.9181Z" fill="#1A73E8"></path><path d="M20.0004 10.0006H37.3191C35.5641 6.9599 33.0394 4.43485 29.9991 2.67933C26.9587 0.923839 23.5097 -0.000249126 19.9989 5.03787e-08C16.4881 0.000249227 13.0392 0.924824 9.99912 2.68076C6.95894 4.4367 4.43473 6.96213 2.68018 10.003L11.3395 25.0015L11.3418 25.0027C10.4632 23.4826 10.0003 21.758 9.9997 20.0023C9.99912 18.2466 10.4609 16.5217 11.3386 15.0011C12.2161 13.4804 13.4788 12.2177 14.9992 11.34C16.5198 10.4621 18.2447 10.0002 20.0004 10.0006Z" fill="url(#paint2_linear_1424_1293)"></path></g><defs><linearGradient id="paint0_linear_1424_1293" x1="22.1656" y1="38.7507" x2="4.84615" y2="8.75257" gradientUnits="userSpaceOnUse"><stop stop-color="#1E8E3E"></stop><stop offset="1" stop-color="#34A853"></stop></linearGradient><linearGradient id="paint1_linear_1424_1293" x1="17.0829" y1="40.0524" x2="34.4023" y2="10.0543" gradientUnits="userSpaceOnUse"><stop stop-color="#FCC934"></stop><stop offset="1" stop-color="#FBBC04"></stop></linearGradient><linearGradient id="paint2_linear_1424_1293" x1="2.68019" y1="12.5014" x2="37.3191" y2="12.5014" gradientUnits="userSpaceOnUse"><stop stop-color="#D93025"></stop><stop offset="1" stop-color="#EA4335"></stop></linearGradient><clipPath id="clip0_1424_1293"><rect width="40" height="40" fill="white"></rect></clipPath></defs></svg>