<svg xmlns="http://www.w3.org/2000/svg" width="40" height="40" viewBox="0 0 40 40" fill="none"><g clip-path="url(#clip0_1424_1295)"><path d="M8.43281 25.2866C8.43281 27.6114 6.55533 29.4904 4.23234 29.4904C1.90935 29.4904 0.0318604 27.6114 0.0318604 25.2866C0.0318604 22.9617 1.90935 21.0828 4.23234 21.0828H8.43281V25.2866Z" fill="#E01E5A"></path><path d="M10.533 25.2866C10.533 22.9617 12.4104 21.0828 14.7334 21.0828C17.0564 21.0828 18.9339 22.9617 18.9339 25.2866V35.7961C18.9339 38.121 17.0564 40 14.7334 40C12.4104 40 10.533 38.121 10.533 35.7961V25.2866Z" fill="#E01E5A"></path><path d="M14.7334 8.40764C12.4104 8.40764 10.533 6.52866 10.533 4.20382C10.533 1.87898 12.4104 0 14.7334 0C17.0564 0 18.9339 1.87898 18.9339 4.20382V8.40764H14.7334Z" fill="#36C5F0"></path><path d="M14.7335 10.5415C17.0565 10.5415 18.934 12.4205 18.934 14.7453C18.934 17.0702 17.0565 18.9491 14.7335 18.9491H4.20048C1.87749 18.9491 0 17.0702 0 14.7453C0 12.4205 1.87749 10.5415 4.20048 10.5415H14.7335Z" fill="#36C5F0"></path><path d="M31.5673 14.7453C31.5673 12.4205 33.4448 10.5415 35.7677 10.5415C38.0907 10.5415 39.9682 12.4205 39.9682 14.7453C39.9682 17.0702 38.0907 18.9491 35.7677 18.9491H31.5673V14.7453Z" fill="#2EB67D"></path><path d="M29.4669 14.7452C29.4669 17.0701 27.5894 18.949 25.2664 18.949C22.9434 18.949 21.0659 17.0701 21.0659 14.7452V4.20382C21.0659 1.87898 22.9434 0 25.2664 0C27.5894 0 29.4669 1.87898 29.4669 4.20382V14.7452Z" fill="#2EB67D"></path><path d="M25.2664 31.5923C27.5894 31.5923 29.4669 33.4713 29.4669 35.7961C29.4669 38.1209 27.5894 39.9999 25.2664 39.9999C22.9434 39.9999 21.0659 38.1209 21.0659 35.7961V31.5923H25.2664Z" fill="#ECB22E"></path><path d="M25.2664 29.4904C22.9434 29.4904 21.0659 27.6114 21.0659 25.2866C21.0659 22.9617 22.9434 21.0828 25.2664 21.0828H35.7994C38.1224 21.0828 39.9999 22.9617 39.9999 25.2866C39.9999 27.6114 38.1224 29.4904 35.7994 29.4904H25.2664Z" fill="#ECB22E"></path></g><defs><clipPath id="clip0_1424_1295"><rect width="40" height="40" fill="white"></rect></clipPath></defs></svg>