<svg xmlns="http://www.w3.org/2000/svg" width="40" height="40" viewBox="0 0 40 40" fill="none"><path fill-rule="evenodd" clip-rule="evenodd" d="M17.7654 1C23.8833 1 33.1276 2.88408 37.4309 7.20468C38.5211 8.30018 39.9474 10.4458 39.9474 13.5881C39.9474 19.1751 35.4641 27.7468 30.5136 32.7186C27.9544 35.2885 23.8833 38.6471 18.4072 38.6471C13.0539 38.6471 8.96542 34.9964 7.78187 33.8074C3.24778 29.2546 0 22.3441 0 15.9006C0 11.8348 1.1542 8.27882 4.09909 5.32326C6.82648 2.5852 11.526 1 17.7654 1ZM25.3378 23.2808C27.4033 21.2059 27.9598 18.6506 27.9598 17.2442C27.9598 16.2248 27.6928 14.7291 26.4226 13.4547C24.4745 11.4986 22.3168 10.9462 19.9698 10.9462C16.9968 10.9462 14.9993 11.8895 13.6689 13.2266C12.6255 14.274 11.7235 15.8846 11.7235 18.1729C11.7235 20.46 12.9378 22.6696 14.2614 23.9973C15.4836 25.2249 17.4052 26.1336 19.3399 26.1336C21.2747 26.1336 23.2722 25.3556 25.3378 23.2808Z" fill="#5952FF"></path></svg>