<svg xmlns="http://www.w3.org/2000/svg" width="25" height="24" viewBox="0 0 25 24" fill="none"><path d="M22.7657 0H2.36567C1.88828 0 1.43045 0.189642 1.09288 0.527208C0.755316 0.864773 0.565674 1.32261 0.565674 1.8V22.2C0.565674 22.6774 0.755316 23.1352 1.09288 23.4728C1.43045 23.8104 1.88828 24 2.36567 24H22.7657C23.2431 24 23.7009 23.8104 24.0385 23.4728C24.376 23.1352 24.5657 22.6774 24.5657 22.2V1.8C24.5657 1.32261 24.376 0.864773 24.0385 0.527208C23.7009 0.189642 23.2431 0 22.7657 0ZM7.76567 20.4H4.16567V9.6H7.76567V20.4ZM5.96567 7.5C5.55309 7.48821 5.15314 7.35509 4.81577 7.11729C4.47841 6.87949 4.21861 6.54754 4.06883 6.16293C3.91904 5.77832 3.88592 5.35809 3.9736 4.95476C4.06128 4.55144 4.26587 4.18289 4.56181 3.89517C4.85775 3.60745 5.23191 3.41332 5.63755 3.33704C6.04319 3.26075 6.46231 3.30569 6.84256 3.46625C7.2228 3.62681 7.5473 3.89586 7.7755 4.23978C8.00371 4.5837 8.12551 4.98725 8.12567 5.4C8.1162 5.96442 7.88368 6.50214 7.47893 6.89564C7.07419 7.28914 6.53014 7.50642 5.96567 7.5ZM20.9657 20.4H17.3657V14.712C17.3657 13.008 16.6457 12.396 15.7097 12.396C15.4352 12.4143 15.1671 12.4866 14.9207 12.6088C14.6743 12.731 14.4545 12.9006 14.2739 13.108C14.0932 13.3154 13.9553 13.5565 13.8681 13.8173C13.7809 14.0782 13.7461 14.3537 13.7657 14.628C13.7597 14.6838 13.7597 14.7402 13.7657 14.796V20.4H10.1657V9.6H13.6457V11.16C13.9967 10.626 14.479 10.1911 15.0463 9.89692C15.6136 9.60276 16.247 9.4592 16.8857 9.48C18.7457 9.48 20.9177 10.512 20.9177 13.872L20.9657 20.4Z" fill="#FF8EAA"></path></svg>