<svg xmlns="http://www.w3.org/2000/svg" width="134" height="45" viewBox="0 0 134 45" fill="none"><g clip-path="url(#clip0_1372_409)"><path d="M4.61903 44.3455L0 0.396973H8.43479L10.8447 28.127L13.2546 0.396973H21.2878L23.5973 28.127L25.9068 0.396973H34.442L29.7226 44.3455H19.3799L17.221 23.1642L15.1625 44.3455H4.61903Z" fill="white"></path><path d="M36.8906 0.396973H50.1451C52.254 0.396973 53.8775 0.891542 55.0152 1.88068C56.187 2.83571 56.9737 4.20005 57.3752 5.97367C57.7768 7.7132 57.9778 9.94729 57.9778 12.6759C57.9778 15.1659 57.6596 17.11 57.0238 18.5085C56.3875 19.9069 55.2832 20.879 53.7098 21.4247C55.0152 21.6976 55.9527 22.3627 56.5215 23.4201C57.1241 24.4774 57.4254 25.91 57.4254 27.7177L57.3251 44.3455H48.8899V27.1549C48.8899 25.927 48.6556 25.1425 48.1871 24.8015C47.7186 24.4604 46.8649 24.2898 45.6265 24.2898V44.3455H36.8906V0.396973ZM47.7354 16.6666C48.9405 16.6666 49.5426 15.3364 49.5426 12.6759C49.5426 11.5163 49.4925 10.6465 49.3922 10.0667C49.2919 9.48682 49.1078 9.09457 48.8398 8.88995C48.5722 8.65119 48.1871 8.53179 47.6853 8.53179H45.6767V16.6666H47.7354Z" fill="white"></path><path d="M60.4155 44.3455V0.396973H68.75V44.3455H60.4155Z" fill="white"></path><path d="M75.9078 44.3455V8.83877H70.7866V0.396973H89.6647V8.83877H84.5435V44.3455H75.9078Z" fill="white"></path><path d="M92.0991 44.3455V0.396973H109.37V8.88995H100.885V17.434H109.019V25.7224H100.885V35.8014H109.922V44.3455H92.0991Z" fill="white"></path><path d="M112.036 0.396973H125.29C127.399 0.396973 129.022 0.891542 130.16 1.88068C131.332 2.83571 132.118 4.20005 132.52 5.97367C132.922 7.7132 133.122 9.94729 133.122 12.6759C133.122 15.1659 132.805 17.11 132.169 18.5085C131.533 19.9069 130.428 20.879 128.855 21.4247C130.16 21.6976 131.098 22.3627 131.667 23.4201C132.269 24.4774 132.57 25.91 132.57 27.7177L132.47 44.3455H124.035V27.1549C124.035 25.927 123.801 25.1425 123.332 24.8015C122.864 24.4604 122.01 24.2898 120.772 24.2898V44.3455H112.036V0.396973ZM122.881 16.6666C124.085 16.6666 124.688 15.3364 124.688 12.6759C124.688 11.5163 124.638 10.6465 124.537 10.0667C124.437 9.48682 124.253 9.09457 123.985 8.88995C123.717 8.65119 123.332 8.53179 122.83 8.53179H120.822V16.6666H122.881Z" fill="white"></path></g><defs><clipPath id="clip0_1372_409"><rect width="133.122" height="43.9485" fill="white" transform="translate(0 0.396973)"></rect></clipPath></defs></svg>