<svg xmlns="http://www.w3.org/2000/svg" width="244" height="43" viewBox="0 0 244 43" fill="none"><g clip-path="url(#clip0_1372_407)"><path d="M0 5.32594C0 2.59594 2.19213 0.384766 4.89861 0.384766C4.89861 0.384766 4.92311 0.384766 4.93535 0.384766H31.2287C32.1839 0.384766 32.9677 1.163 32.9677 2.13888C32.9677 3.11477 32.1961 3.893 31.2287 3.893H5.20478C4.24955 3.893 3.46577 4.67124 3.46577 5.64712V28.4012C3.46577 29.3648 4.2373 30.1554 5.20478 30.1554L8.64606 30.1306L8.67055 13.5283C8.67055 10.6871 10.3728 9.15535 13.0058 9.15535H28.6202C31.0082 9.15535 32.9554 11.1195 32.9554 13.5283V29.2783C32.9554 31.9959 30.7143 33.6512 28.6202 33.6512H12.1363V37.1595C12.1363 38.123 12.9079 38.9136 13.8631 38.9136H36.4212C37.3764 38.9136 38.1602 38.1354 38.1602 37.1718V10.8848C38.1357 9.92124 38.895 9.11829 39.8502 9.09359C40.8055 9.06888 41.6015 9.83477 41.626 10.7983C41.626 10.8354 41.626 10.8601 41.626 10.8971V38.0242C41.626 40.6924 39.3971 42.3971 37.2907 42.3971H13.0181C10.2993 42.3971 8.6828 40.1242 8.6828 38.0242V33.6512H4.34752C2.25336 33.6389 0 31.9342 0 29.2659V5.32594ZM12.1486 30.1306H27.7751C28.7304 30.1306 29.5142 29.3524 29.5142 28.3765V14.3806C29.5142 13.4171 28.7549 12.6389 27.7996 12.6265C27.7996 12.6265 27.7874 12.6265 27.7751 12.6265H13.8998C12.9446 12.6265 12.1608 13.4048 12.1608 14.3806V30.1306H12.1486Z" fill="white"></path><path d="M72.1322 26.7336H60.6572C60.3878 26.7212 60.1918 26.4865 60.2041 26.2271V14.6895C60.2041 13.9606 59.6285 13.3553 58.8937 13.3553C58.1589 13.3553 57.5588 13.9483 57.5588 14.6895V26.7336C57.5588 28.2159 58.7467 29.4142 60.2163 29.4142H72.1445C72.8793 29.4142 73.4671 28.8089 73.4671 28.0677C73.4671 27.7218 73.3324 27.3883 73.0874 27.1289C72.8425 26.8818 72.4996 26.7336 72.1445 26.7459L72.1322 26.7336ZM77.435 13.3553C76.7002 13.3553 76.1123 13.9483 76.1123 14.6895V28.0677C76.1123 28.7965 76.7124 29.4018 77.435 29.4018C78.1575 29.4018 78.7576 28.7965 78.7576 28.0677V14.6895C78.7453 13.9606 78.1575 13.3677 77.435 13.3553ZM96.0007 13.3553C95.2659 13.3553 94.6781 13.9606 94.6781 14.6895V24.0283C94.6781 24.1148 94.6169 24.2012 94.5311 24.2136C94.5311 24.2136 94.5311 24.2136 94.5189 24.2136C94.3842 24.2136 94.3719 24.2136 94.1882 24.053L83.7174 13.763C83.4603 13.5036 83.1174 13.3553 82.75 13.3553C82.0274 13.3553 81.4396 13.9236 81.4273 14.6524C81.4273 14.6648 81.4273 14.6771 81.4273 14.6895V28.0677C81.4273 28.8089 82.0274 29.4018 82.75 29.4018C83.4725 29.4018 84.0726 28.7965 84.0726 28.0677V18.7042C84.0726 18.6177 84.1461 18.5436 84.2318 18.5436C84.391 18.5436 84.4032 18.5436 84.5625 18.7165L95.0822 29.0065C95.4619 29.3895 96.0252 29.5253 96.5151 29.3153C97.0049 29.1053 97.3356 28.6112 97.3356 28.0801V14.7018C97.3233 13.973 96.7355 13.3801 96.013 13.3677L96.0007 13.3553ZM149.849 13.3553H139.231C137.761 13.3553 136.573 14.5536 136.573 16.0236V26.7212C136.573 28.2036 137.761 29.4018 139.231 29.4018H143.211V31.0077C143.211 31.6748 143.872 32.0701 144.534 32.0701C145.195 32.0701 145.856 31.6748 145.856 31.0077V29.4018H149.836C150.535 29.4018 151.208 29.1301 151.71 28.6236C152.212 28.1171 152.494 27.4377 152.494 26.7336V16.0359C152.494 14.5536 151.306 13.3553 149.849 13.3553ZM149.849 26.0665C149.849 26.2395 149.787 26.4124 149.665 26.5483C149.543 26.6718 149.371 26.7459 149.187 26.7459H145.869V25.7206C145.869 25.0536 145.207 24.6953 144.546 24.6953C143.885 24.6953 143.223 25.0536 143.223 25.7206V26.7459H139.905C139.537 26.7459 139.243 26.4495 139.243 26.0789V16.7153C139.243 16.3448 139.537 16.0483 139.905 16.0483H149.187C149.555 16.0483 149.836 16.3448 149.849 16.7153V26.0789V26.0665ZM122.27 20.1495H130.585C131.883 20.2112 134.185 21.7059 134.185 24.7818C134.185 27.5612 131.944 29.4142 130.573 29.4142H121.951C120.433 29.4142 118.277 28.3395 118.277 25.3995C118.277 24.6583 118.865 24.0653 119.588 24.053C119.588 24.053 119.588 24.053 119.6 24.053C120.335 24.053 120.922 24.6583 120.922 25.3871C120.922 25.7824 121.069 26.1036 121.314 26.3506C121.559 26.5977 121.902 26.7336 122.245 26.7336H130.181C131.099 26.7336 131.528 25.943 131.528 25.3995V24.1642C131.528 23.5959 131.087 22.8177 130.169 22.8177H121.865C120.873 22.8177 118.265 21.1871 118.265 18.0124C118.265 15.2824 120.555 13.343 121.878 13.343H130.401C132.165 13.343 134.173 14.4918 134.173 17.3824C134.173 18.0742 133.598 18.7042 132.826 18.7042C132.201 18.7042 131.516 18.1977 131.516 17.3453C131.516 16.9871 131.369 16.6536 131.112 16.4065C130.854 16.1595 130.511 16.0236 130.169 16.0236H122.27C121.535 16.0112 120.935 16.5918 120.91 17.333C120.91 17.3453 120.91 17.3577 120.91 17.3701V18.7042C120.91 19.7912 121.731 20.1371 122.245 20.1371L122.27 20.1495ZM232.072 20.1495H240.387C241.686 20.2112 243.988 21.7183 243.988 24.7818C243.988 27.5612 241.734 29.4142 240.363 29.4142H231.741C230.223 29.4142 228.067 28.3395 228.067 25.3995C228.067 24.6583 228.655 24.0653 229.378 24.053C229.378 24.053 229.378 24.053 229.39 24.053C230.125 24.053 230.713 24.6583 230.713 25.3871C230.713 25.7824 230.86 26.1036 231.105 26.3506C231.349 26.5977 231.692 26.7336 232.035 26.7336H239.971C240.877 26.7336 241.318 25.943 241.318 25.3995V24.1642C241.318 23.5959 240.877 22.8177 239.959 22.8177H231.656C230.664 22.8177 228.055 21.1871 228.055 18.0124C228.055 15.2824 230.345 13.343 231.668 13.343H240.191C241.955 13.343 243.963 14.4918 243.963 17.3824C243.963 18.0742 243.388 18.7042 242.616 18.7042C241.881 18.7042 241.294 18.0865 241.306 17.3453C241.306 16.9871 241.159 16.6536 240.902 16.4065C240.645 16.1595 240.314 16.0236 239.959 16.0236H232.06C231.325 16.0112 230.725 16.5918 230.7 17.333C230.7 17.3453 230.7 17.3577 230.7 17.3701V18.7042C230.7 19.7912 231.521 20.1371 232.035 20.1371L232.072 20.1495ZM169.468 13.3553C168.757 13.3553 168.145 13.973 168.145 14.6895V26.0542C168.145 26.4248 167.851 26.7212 167.484 26.7212H158.201C157.833 26.7212 157.54 26.4248 157.54 26.0542V14.6895C157.564 13.9483 156.988 13.3306 156.254 13.3059C155.519 13.2812 154.907 13.8618 154.882 14.603C154.882 14.6277 154.882 14.6524 154.882 14.6895V26.7212C154.882 28.2036 156.07 29.4018 157.54 29.4018H168.145C168.843 29.4018 169.529 29.1301 170.031 28.6359C170.533 28.1295 170.79 27.4377 170.79 26.7336V14.6895C170.79 13.973 170.178 13.3553 169.468 13.3553ZM182.425 14.3806C182.131 13.6889 181.763 13.3553 181.151 13.3553C180.539 13.3553 180.159 13.6024 179.779 14.3806C179.779 14.3806 174.428 24.7448 173.301 27.5489C173.031 28.2036 173.301 28.9571 173.938 29.2659C174.574 29.5748 175.334 29.3401 175.689 28.7224L177.367 25.733C177.489 25.6095 177.661 25.5353 177.832 25.5353H184.457C184.629 25.5353 184.8 25.6095 184.923 25.733L186.613 28.7224C186.98 29.4018 187.617 29.5253 188.389 29.2783C189.099 28.9818 189.209 27.9565 189.001 27.5489L182.425 14.3806ZM180.992 17.5183C180.992 17.5183 181.041 17.3453 181.151 17.3453C181.261 17.3453 181.31 17.5059 181.31 17.5059L183.441 22.4595C183.478 22.5336 183.465 22.6201 183.429 22.6818C183.392 22.7559 183.319 22.793 183.233 22.793H178.934C178.8 22.793 178.702 22.6818 178.702 22.5459C178.702 22.5089 178.702 22.4842 178.726 22.4595L180.979 17.5059L180.992 17.5183ZM203.831 22.5583V22.5089C203.831 22.5089 205.068 21.3477 205.46 20.5942C205.852 19.8283 206.048 18.9883 206.06 18.1359C206.085 14.8006 203.195 13.3553 202.092 13.3553H192.822C192.087 13.3553 191.499 13.9483 191.487 14.6895V28.1665C191.548 28.9077 192.197 29.4512 192.932 29.3895C193.581 29.3277 194.083 28.8212 194.144 28.1665V23.4848C194.144 23.2995 194.23 23.1265 194.365 22.9906C194.5 22.8671 194.683 22.8053 194.855 22.8177H200.672C200.672 22.8177 200.758 22.8177 200.782 22.8548L204.958 28.8089C205.154 29.1177 205.473 29.3277 205.828 29.3895C206.55 29.5253 207.236 29.0436 207.371 28.3271C207.371 28.3024 207.371 28.2901 207.371 28.2653C207.42 27.9071 207.322 27.5365 207.101 27.2524L203.819 22.5706L203.831 22.5583ZM194.806 20.1371C194.72 20.1371 194.634 20.1124 194.561 20.0753C194.316 19.9765 194.157 19.7295 194.144 19.4701V16.6906C194.144 16.5177 194.206 16.3324 194.34 16.2089C194.463 16.0853 194.634 16.0236 194.806 16.0236H201.419C201.945 16.0236 202.448 16.2212 202.827 16.6042C203.195 16.9871 203.415 17.5924 203.415 18.1236C203.415 18.6548 203.207 19.1612 202.827 19.5442C202.46 19.9271 201.945 20.1371 201.419 20.1495H194.806V20.1371ZM213.102 16.0236H224.295C224.859 16.0606 225.373 15.7395 225.594 15.2206C225.887 14.5412 225.581 13.7506 224.908 13.4542C224.712 13.3677 224.504 13.3306 224.295 13.343H211.167C210.42 13.343 209.808 13.9359 209.796 14.6895V28.0059C209.796 28.7595 210.31 29.34 211.045 29.3648H224.295C224.859 29.4018 225.373 29.0806 225.594 28.5618C225.887 27.8824 225.581 27.0918 224.908 26.7953C224.712 26.7089 224.504 26.6718 224.295 26.6842H213.102C212.735 26.6842 212.441 26.3753 212.441 26.0171V23.4477C212.441 23.2748 212.514 23.1018 212.637 22.9659C212.759 22.8424 212.931 22.7683 213.102 22.7683H223.303C223.487 22.7683 223.659 22.7559 223.83 22.6942C224.173 22.5706 224.455 22.3112 224.602 21.9653C224.895 21.2859 224.589 20.4953 223.916 20.1989C223.72 20.1124 223.512 20.0753 223.303 20.0877H213.102C212.735 20.0877 212.441 19.7912 212.441 19.4206V16.6289C212.441 16.2583 212.735 15.9618 213.102 15.9618V16.0236ZM115.289 26.9189L106.325 21.7059C106.153 21.5948 106.08 21.5206 106.08 21.3724C106.08 21.2736 106.08 21.1871 106.312 21.0389L115.24 15.8383C115.877 15.4677 116.085 14.6524 115.73 14.0101C115.73 14.0101 115.73 13.9977 115.718 13.9853C115.35 13.3677 114.579 13.1577 113.954 13.5036L103.055 19.853C102.945 19.8653 102.822 19.8283 102.736 19.7542C102.663 19.6801 102.638 19.5689 102.638 19.4577V14.6895C102.638 13.9606 102.038 13.3553 101.316 13.3553C100.593 13.3553 99.9931 13.9606 99.9931 14.6895V28.0677C99.9931 28.7965 100.593 29.4018 101.316 29.4018C102.038 29.4018 102.638 28.7965 102.638 28.0677V23.3118C102.638 23.1883 102.7 23.0771 102.798 23.0153C102.932 22.9536 103.104 22.9536 103.238 23.0153L114.052 29.303C114.664 29.5624 115.399 29.3153 115.718 28.7348C116.048 28.1048 115.865 27.3265 115.277 26.9312L115.289 26.9189Z" fill="white"></path></g><defs><clipPath id="clip0_1372_407"><rect width="243.988" height="42.0124" fill="white" transform="translate(0 0.384766)"></rect></clipPath></defs></svg>