<svg xmlns="http://www.w3.org/2000/svg" width="200" height="24" viewBox="0 0 200 24" fill="none"><g clip-path="url(#clip0_1932_1004)"><mask id="mask0_1932_1004" style="mask-type:luminance" maskUnits="userSpaceOnUse" x="0" y="0" width="200" height="24"><path d="M200 0H0V24H200V0Z" fill="white"></path></mask><g mask="url(#mask0_1932_1004)"><path d="M110.071 5.72284C110.071 3.50653 109.704 2.05104 108.772 1.12482C107.84 0.397075 106.375 0.0332031 103.978 0.0332031H89.5613C87.1642 0.0332031 85.6659 0.397075 84.767 1.12482C83.8347 1.85256 83.4685 3.34113 83.4685 5.72284V18.3922C83.4685 20.6085 83.8347 22.064 84.767 22.9902C85.6992 23.718 87.1642 24.0819 89.5613 24.0819H103.978C106.375 24.0819 107.873 23.718 108.772 22.9902C109.704 22.2625 110.071 20.7739 110.071 18.3922V15.2828H103.978L101.547 19.4838H92.6577L88.2296 11.9748L92.6577 4.43275H101.547L103.944 8.6669H110.037V5.72284H110.071Z" fill="white"></path><path d="M81.7702 15.2828V18.3922C81.7702 20.6085 81.404 22.064 80.4717 22.9902C79.5395 23.718 78.0746 24.0819 75.6774 24.0819H61.261C58.8639 24.0819 57.3656 23.718 56.4667 22.9902C55.5344 22.2625 55.1682 20.7739 55.1682 18.3922V5.72284C55.1682 3.50653 55.5344 2.05104 56.4667 1.12482C57.3989 0.397075 58.8639 0.0332031 61.261 0.0332031H75.6774C78.0746 0.0332031 79.5728 0.397075 80.4717 1.12482C81.404 1.85256 81.7702 3.34113 81.7702 5.72284V8.46843V15.2828ZM59.9293 11.9748L64.3574 19.5169H73.2469L77.675 11.9748L73.2469 4.43275H64.3574L59.9293 11.9748Z" fill="white"></path><path d="M138.171 15.2828V18.3922C138.171 20.6085 137.804 22.064 136.872 22.9902C135.94 23.718 134.475 24.0819 132.077 24.0819H117.662C115.264 24.0819 113.766 23.718 112.867 22.9902C111.935 22.2625 111.569 20.7739 111.569 18.3922V5.72284C111.569 3.50653 111.935 2.05104 112.867 1.12482C113.966 0.397075 115.464 0.0332031 117.861 0.0332031H132.277C134.674 0.0332031 136.173 0.397075 137.072 1.12482C138.004 1.85256 138.371 3.34113 138.371 5.72284V8.46843V15.2828H138.171ZM116.53 11.9748L120.958 19.5169H129.847L134.275 11.9748L129.847 4.43275H120.958L116.53 11.9748Z" fill="white"></path><path d="M92.1249 11.9744L94.5221 16.1755H99.5162L101.913 11.9744L99.5162 7.74023H94.5221L92.1249 11.9744Z" fill="white"></path><path d="M0 24.0817V0H19.9765C24.2381 0 26.0693 2.01784 26.0693 4.76342V10.2877C26.0693 13.0332 24.4046 15.0511 19.9765 15.0511H6.65882V23.8833H0V24.0817ZM17.3795 5.35885H6.65882V9.95687H17.3795C18.112 9.95687 18.678 9.95687 18.8445 9.75839C19.2107 9.55992 19.4105 9.19605 19.4105 8.66678V6.81434C19.4105 6.25199 19.2107 5.88812 18.8445 5.72272C18.678 5.52425 18.112 5.35885 17.3795 5.35885Z" fill="white"></path><path d="M27.3683 24.0817V0H47.3448C51.6064 0 53.4376 2.01784 53.4376 4.76342V10.2877C53.4376 13.0332 51.7729 15.0511 47.3448 15.0511H46.6123L57.1665 23.8833H47.3781L37.9558 15.0511H34.0604V23.8833H27.4016V24.0817H27.3683ZM44.7478 5.35885H34.0271V9.95687H44.7478C45.4803 9.95687 46.0463 9.95687 46.2128 9.75839C46.579 9.55992 46.7788 9.19605 46.7788 8.66678V6.81434C46.7788 6.25199 46.579 5.88812 46.2128 5.72272C46.0463 5.52425 45.5136 5.35885 44.7478 5.35885Z" fill="white"></path><path d="M140.201 24.0817V0H160.178C164.439 0 166.271 2.01784 166.271 4.76342V10.2877C166.271 13.0332 164.607 15.0511 160.178 15.0511H159.445L170 23.8833H160.212L150.789 15.0511H146.894V23.8833H140.235V24.0817H140.201ZM157.415 5.35885H146.694V9.95687H157.415C158.147 9.95687 158.713 9.95687 158.88 9.75839C159.246 9.55992 159.445 9.19605 159.445 8.66678V6.81434C159.445 6.25199 159.246 5.88812 158.88 5.72272C158.713 5.52425 158.147 5.35885 157.415 5.35885Z" fill="white"></path><path d="M167.935 24.0817V0H192.706V5.32577H174.794V8.99757H185.349V14.3233H174.794V18.359H193.105V24.0487H167.935V24.0817Z" fill="white"></path><path d="M199.765 2.58019C199.765 4.03567 198.665 5.16037 197.001 5.16037C195.536 5.16037 194.238 4.06875 194.238 2.58019C194.238 1.09162 195.536 0 197.001 0C198.665 0.0330793 199.765 1.1247 199.765 2.58019ZM194.97 2.58019C194.97 3.6718 195.902 4.59802 197.001 4.59802C198.1 4.59802 199.032 3.6718 199.032 2.58019C199.032 1.48857 198.1 0.363873 197.001 0.363873C195.869 0.562349 194.97 1.48857 194.97 2.58019ZM196.635 4.06875H196.068V1.29009C196.268 1.29009 196.635 1.29009 197.001 1.29009C197.567 1.29009 197.733 1.29009 197.933 1.48857C198.133 1.68704 198.133 1.85244 198.133 2.05092C198.133 2.41479 197.933 2.61326 197.567 2.61326C197.767 2.81174 197.933 2.97714 198.133 3.17561C198.133 3.53948 198.332 3.73796 198.332 3.90336H197.6C197.6 3.70488 197.4 3.53949 197.4 3.34101C197.4 2.97714 197.2 2.97714 196.835 2.97714H196.435V4.06875H196.635ZM196.635 2.58019H197.001C197.367 2.58019 197.567 2.38171 197.567 2.21631C197.567 2.01784 197.367 1.85244 197.001 1.85244C196.801 1.85244 196.801 1.85244 196.635 1.85244V2.58019Z" fill="white"></path></g></g><defs><clipPath id="clip0_1932_1004"><rect width="200" height="24" fill="white"></rect></clipPath></defs></svg>