<svg xmlns="http://www.w3.org/2000/svg" width="184" height="50" viewBox="0 0 184 50" fill="none"><g clip-path="url(#clip0_1372_406)"><path d="M12.6989 16.1669C8.32172 16.1669 6.17299 20.1219 6.17299 25.4117V38.6462H0V10.7095H6.06769V17.9552H6.17299C7.46792 13.5003 10.0492 9.90062 14.028 9.90062C16.8284 9.90062 18.0124 10.9031 18.0124 10.9031L15.2261 16.6522C15.2261 16.6522 14.3353 16.1669 12.6989 16.1669ZM87.324 20.0006V38.6375H81.3104V22.2684C81.3104 17.5709 79.8732 15.0864 76.2018 15.0864C72.4024 15.0864 70.5639 18.2325 70.5639 24.2676V38.6375H64.6043V22.2684C64.6043 17.7529 63.1813 15.0864 59.547 15.0864C55.3975 15.0864 53.8009 18.8132 53.8009 24.2676V38.6375H47.7361V10.7095H53.7895V17.0336H53.8436C54.7885 12.6567 57.367 9.95551 61.7185 9.95551C66.07 9.95551 68.8335 12.3332 69.9121 16.5482C70.9282 12.5036 73.6319 9.95551 77.787 9.95551C83.5957 9.95551 87.324 13.6823 87.324 20.0006ZM30.1421 9.88906C24.5639 9.88906 20.9096 12.5758 19.2447 17.4265L24.3675 19.3419C25.3295 16.4298 27.2676 14.7628 30.2474 14.7628C33.6 14.7628 35.5694 16.2738 35.5694 18.5965C35.5694 20.9713 34.0012 21.4855 30.4466 22.0633C26.5106 22.7134 17.1443 22.93 17.1443 31.0192C17.1443 35.7659 21.0149 39.3396 26.8208 39.3396C31.1922 39.3396 34.1692 37.5079 35.5466 34.0989H35.6007V38.6375H41.6115V21.4595C41.6342 13.9452 37.9458 9.90062 30.1421 9.90062V9.88906ZM35.7288 25.4897C35.7288 31.3457 32.9027 35.1101 28.3861 35.1101C25.1928 35.1101 23.2775 33.2727 23.2775 30.6234C23.2775 28.1389 25.2469 26.4142 29.0236 25.7121C32.8885 24.9841 34.8351 24.0856 35.7288 21.9304V25.4897ZM108.717 9.95551C104.118 9.95551 101.079 12.5556 99.7781 16.4413V10.7095H93.3917V49.3846H99.7212V32.8971H99.7753C101.184 37.115 104.118 39.4378 108.715 39.4378C116.003 39.4378 121.22 33.2813 121.22 24.5825C121.22 15.9502 116.003 9.95551 108.717 9.95551ZM107.149 34.2607C102.1 34.2607 99.3 30.505 99.3 24.675C99.3 18.845 102.431 15.0864 107.149 15.0864C111.868 15.0864 114.993 19.0299 114.993 24.675C114.993 30.3201 111.848 34.2607 107.146 34.2607H107.149ZM183.266 38.4584V38.6289H159.305V38.4526C162.232 36.7513 164.918 34.6561 167.291 32.224H177.133L183.266 38.4584ZM177.326 6.16514L171.253 0H171.079C171.079 0 171.182 11.4896 160.984 21.9391C151.003 32.1662 139.269 32.1864 139.269 32.1864V32.3655L145.457 38.6375C145.457 38.6375 157.02 38.756 167.234 28.3874C177.449 18.0187 177.326 6.16514 177.326 6.16514Z" fill="white"></path></g><defs><clipPath id="clip0_1372_406"><rect width="183.266" height="49.3846" fill="white"></rect></clipPath></defs></svg>