<svg xmlns="http://www.w3.org/2000/svg" width="250" height="55" viewBox="0 0 250 55" fill="none"><g clip-path="url(#clip0_1932_1024)"><mask id="mask0_1932_1024" style="mask-type:luminance" maskUnits="userSpaceOnUse" x="0" y="0" width="250" height="55"><path d="M250 0H0V55H250V0Z" fill="white"></path></mask><g mask="url(#mask0_1932_1024)"><path d="M68.8846 26.5851C72.6914 26.5851 75.2468 28.2599 76.8114 30.3407V0.700754C76.8114 0.142456 76.1333 -0.212806 75.664 0.142456L38.0642 26.8895H39.055C42.9662 26.8895 44.9479 29.3257 44.9479 31.9649C44.9479 34.0458 43.8528 35.5684 42.3404 36.2282C42.0797 36.3297 42.0797 36.685 42.3404 36.7865C44.0614 37.4971 45.313 39.2734 45.313 41.405C45.313 44.4503 43.2792 46.8357 39.368 46.8357H28.6773C28.4687 46.8357 28.2601 46.6834 28.2601 46.4297V33.8428L0.255764 53.7889C-0.213581 54.1949 -0.00498396 54.9055 0.620811 54.9055H76.1333C76.4984 54.9055 76.7591 54.6517 76.7591 54.2964V44.1964C74.7253 46.0236 72.0657 47.191 68.8324 47.191C62.7831 47.191 57.8811 43.1306 57.8811 36.888C57.9332 30.5946 62.8874 26.5851 68.8846 26.5851ZM53.9176 46.4804C53.9176 46.6834 53.7612 46.8357 53.5526 46.8357H49.9543C49.7457 46.8357 49.5893 46.6834 49.5893 46.4804V27.2448C49.5893 27.0418 49.7457 26.8895 49.9543 26.8895H53.5526C53.7612 26.8895 53.9176 27.0418 53.9176 27.2448V46.4804Z" fill="white"></path><path d="M33.0573 34.8068H38.1158C39.576 34.8068 40.5146 33.9948 40.5146 32.7258C40.5146 31.5078 39.576 30.645 38.1158 30.645H32.8487C32.7444 30.645 32.6401 30.7465 32.6401 30.848V34.4515C32.6401 34.6545 32.8487 34.8068 33.0573 34.8068Z" fill="white"></path><path d="M33.0573 43.1308H38.3244C39.9411 43.1308 40.9319 42.2679 40.9319 40.8468C40.9319 39.578 39.9932 38.563 38.3244 38.563H33.0573C32.8487 38.563 32.6401 38.7152 32.6401 38.969V42.7248C32.6401 42.9278 32.8487 43.1308 33.0573 43.1308Z" fill="white"></path><path d="M73.5259 32.6247C72.535 31.3559 70.8663 30.3408 68.8845 30.3408C65.1297 30.3408 62.418 33.1322 62.418 36.888C62.418 40.6438 65.1297 43.4352 68.8845 43.4352C70.6054 43.4352 72.2221 42.7246 73.1087 42.0141C73.1608 41.9634 73.2129 41.8618 73.2129 41.7604V39.8317C73.2129 39.6794 73.0564 39.5272 72.9001 39.5272H68.2588C67.9979 39.5272 67.8416 39.3241 67.8416 39.1211V36.279C67.8416 36.0252 68.0502 35.873 68.2588 35.873H76.8634V31.3559L74.0994 32.8277C73.8908 32.8785 73.6301 32.777 73.5259 32.6247Z" fill="white"></path><path d="M80.0447 36.8874C80.0447 30.7463 84.5817 26.5845 90.4224 26.5845C94.2293 26.5845 96.6804 28.4623 98.1406 30.7463C98.2448 30.8984 98.1927 31.1523 97.9841 31.203L95.6373 32.4211C95.481 32.5226 95.2724 32.4718 95.2201 32.3196C94.2293 30.797 92.404 29.6804 90.4224 29.6804C86.5113 29.6804 83.5908 32.6748 83.5908 36.8874C83.5908 41.0492 86.5113 44.0944 90.4224 44.0944C92.404 44.0944 94.2293 42.9777 95.2201 41.4552C95.3245 41.3029 95.481 41.2522 95.6373 41.3537L97.9841 42.521C98.1927 42.6226 98.2448 42.8256 98.1406 43.0286C96.6282 45.3124 94.1771 47.2411 90.4224 47.2411C84.5817 47.1904 80.0447 42.9777 80.0447 36.8874Z" fill="white"></path><path d="M100.174 36.8868C100.174 31.913 103.095 28.0556 107.475 26.9391C114.933 25.0105 121.764 31.8114 120.148 39.3738C119.157 44.043 115.35 47.2405 110.291 47.2405C104.346 47.1897 100.174 42.825 100.174 36.8868ZM116.81 36.8868C116.81 32.7757 114.203 29.6798 110.239 29.6798C106.224 29.6798 103.668 32.7757 103.668 36.8868C103.668 40.9979 106.224 44.0937 110.239 44.0937C114.255 44.0937 116.81 40.9471 116.81 36.8868Z" fill="white"></path><path d="M141.634 46.5814V31.4062L135.428 46.683C135.428 46.7337 135.324 46.7844 135.272 46.7844H133.967C133.915 46.7844 133.812 46.7337 133.812 46.683L127.553 31.4062V46.5814C127.553 46.7337 127.449 46.8353 127.293 46.8353H124.164C124.007 46.8353 123.903 46.7337 123.903 46.5814V27.0921C123.903 26.9398 124.007 26.8384 124.164 26.8384H128.649C128.857 26.8384 129.014 26.9398 129.117 27.1428L134.593 40.8463L140.017 27.1428C140.069 26.9398 140.278 26.8384 140.486 26.8384H144.971C145.128 26.8384 145.231 26.9398 145.231 27.0921V46.5814C145.231 46.7337 145.128 46.8353 144.971 46.8353H141.842C141.79 46.8353 141.634 46.7337 141.634 46.5814Z" fill="white"></path><path d="M177.095 46.4795V27.2438C177.095 27.0408 177.253 26.8887 177.461 26.8887H190.758C190.968 26.8887 191.124 27.0408 191.124 27.2438V29.5785C191.124 29.7815 190.968 29.9338 190.758 29.9338H181.059C180.851 29.9338 180.694 30.0861 180.694 30.2891V34.7046C180.694 34.9077 180.851 35.0599 181.059 35.0599H190.55C190.758 35.0599 190.915 35.2122 190.915 35.4152V37.7498C190.915 37.9528 190.758 38.1051 190.55 38.1051H181.059C180.851 38.1051 180.694 38.2574 180.694 38.4604V43.2819C180.694 43.485 180.851 43.6372 181.059 43.6372H190.758C190.968 43.6372 191.124 43.7895 191.124 43.9925V46.3272C191.124 46.5302 190.968 46.6825 190.758 46.6825H177.461C177.253 46.8347 177.095 46.6825 177.095 46.4795Z" fill="white"></path><path d="M207.811 46.6317L203.483 39.5262C203.431 39.4247 203.275 39.374 203.17 39.374H200.145C199.937 39.374 199.78 39.5262 199.78 39.7292V46.4795C199.78 46.6825 199.624 46.8347 199.415 46.8347H196.599C196.391 46.8347 196.234 46.6825 196.234 46.4795V27.2438C196.234 27.0408 196.391 26.8887 196.599 26.8887H205.256C209.323 26.8887 211.983 29.4262 211.983 33.1313C211.983 36.4303 209.897 38.3081 207.603 38.8664C207.342 38.9171 207.237 39.171 207.342 39.4247C208.176 40.7444 210.783 44.8046 211.775 46.2765C211.932 46.5302 211.775 46.8347 211.462 46.8347H208.176C208.02 46.8347 207.916 46.784 207.811 46.6317ZM208.281 33.0806C208.281 31.1519 206.821 29.9338 204.786 29.9338H200.198C199.988 29.9338 199.833 30.0861 199.833 30.2891V35.9227C199.833 36.1257 199.988 36.278 200.198 36.278H204.786C206.821 36.278 208.281 35.0599 208.281 33.0806Z" fill="white"></path><path d="M236.285 46.4795V27.2438C236.285 27.0408 236.442 26.8887 236.65 26.8887H250C250.209 26.8887 250.365 27.0408 250.365 27.2438V29.6293C250.365 29.8323 250.209 29.9846 250 29.9846H240.248C240.04 29.9846 239.883 30.1368 239.883 30.3399V34.8062C239.883 35.0092 240.04 35.1614 240.248 35.1614H249.739C249.947 35.1614 250.105 35.3137 250.105 35.5167V37.9021C250.105 38.1051 249.947 38.2574 249.739 38.2574H240.248C240.04 38.2574 239.883 38.4097 239.883 38.6127V43.485C239.883 43.688 240.04 43.8403 240.248 43.8403H250C250.209 43.8403 250.365 43.9926 250.365 44.1956V46.581C250.365 46.784 250.209 46.9363 250 46.9363H236.65C236.442 46.8347 236.285 46.6825 236.285 46.4795Z" fill="white"></path><path d="M214.589 36.7859C214.589 30.6447 219.127 26.4829 224.968 26.4829C228.775 26.4829 231.226 28.3607 232.686 30.6447C232.791 30.797 232.738 31.0507 232.529 31.1014L230.182 32.3195C230.026 32.4211 229.817 32.3703 229.766 32.2181C228.775 30.6954 226.949 29.5789 224.968 29.5789C221.057 29.5789 218.137 32.5734 218.137 36.7859C218.137 40.9476 221.057 43.9928 224.968 43.9928C226.949 43.9928 228.775 42.8763 229.766 41.3537C229.869 41.2014 230.026 41.1506 230.182 41.2522L232.529 42.4194C232.738 42.521 232.791 42.724 232.686 42.927C231.173 45.211 228.722 47.1395 224.968 47.1395C219.127 47.0888 214.589 42.927 214.589 36.7859Z" fill="white"></path><path d="M168.23 46.5814V31.4062L162.023 46.683C162.023 46.7337 161.92 46.7844 161.867 46.7844H160.563C160.511 46.7844 160.407 46.7337 160.407 46.683L154.149 31.4062V46.5814C154.149 46.7337 154.045 46.8353 153.889 46.8353H150.759C150.602 46.8353 150.499 46.7337 150.499 46.5814V27.0921C150.499 26.9398 150.602 26.8384 150.759 26.8384H155.244C155.452 26.8384 155.609 26.9398 155.713 27.1428L161.189 40.8463L166.613 27.1428C166.665 26.9398 166.873 26.8384 167.081 26.8384H171.566C171.723 26.8384 171.828 26.9398 171.828 27.0921V46.5814C171.828 46.7337 171.723 46.8353 171.566 46.8353H168.438C168.333 46.8353 168.23 46.7337 168.23 46.5814Z" fill="white"></path></g></g><defs><clipPath id="clip0_1932_1024"><rect width="250" height="55" fill="white"></rect></clipPath></defs></svg>