<svg xmlns="http://www.w3.org/2000/svg" width="214" height="36" viewBox="0 0 214 36" fill="none"><g clip-path="url(#clip0_1932_1041)"><mask id="mask0_1932_1041" style="mask-type:luminance" maskUnits="userSpaceOnUse" x="0" y="0" width="214" height="36"><path d="M214 0H0V36H214V0Z" fill="white"></path></mask><g mask="url(#mask0_1932_1041)"><path d="M53.3107 14.867H50.0908V12.1252H53.3107V9.69675C53.3107 7.81666 53.8667 6.3348 54.9788 5.25114C56.0908 4.16747 57.6296 3.62565 59.5952 3.62565C60.4228 3.62565 61.2051 3.75621 61.9422 4.01733C62.6792 4.27845 63.2805 4.64402 63.746 5.11405L62.3495 7.46415C61.7029 6.88968 60.9012 6.60244 59.9443 6.60244C59.0909 6.60244 58.412 6.89621 57.9077 7.48373C57.4033 8.07126 57.1512 8.87421 57.1512 9.89259V12.1252H62.6598V14.867H57.1512V31.7094H53.3107V14.867ZM71.8061 32.1011C68.8319 32.1011 66.4914 31.1937 64.7845 29.3789C63.0776 27.5641 62.2242 25.0769 62.2242 21.9173C62.2242 18.7577 63.0776 16.2705 64.7845 14.4557C66.4914 12.6409 68.8319 11.7335 71.8061 11.7335C74.7803 11.7335 77.1272 12.6409 78.8471 14.4557C80.5669 16.2705 81.4268 18.7577 81.4268 21.9173C81.4268 25.0769 80.5669 27.5641 78.8471 29.3789C77.1272 31.1937 74.7803 32.1011 71.8061 32.1011ZM71.8061 29.1634C73.5906 29.1634 75.0001 28.5172 76.0346 27.2246C77.069 25.932 77.5863 24.163 77.5863 21.9173C77.5863 19.6716 77.069 17.9025 76.0346 16.61C75.0001 15.3174 73.5906 14.6711 71.8061 14.6711C69.9957 14.6711 68.5863 15.3174 67.5776 16.61C66.569 17.9025 66.0647 19.6716 66.0647 21.9173C66.0647 24.163 66.569 25.932 67.5776 27.2246C68.5863 28.5172 69.9957 29.1634 71.8061 29.1634ZM84.4437 16.9037C84.4437 14.6842 84.4049 13.0913 84.3274 12.1252H87.9351C88.0386 13.1697 88.0903 14.3186 88.0903 15.572V15.9637H88.2067C88.7239 14.632 89.545 13.594 90.67 12.8498C91.7951 12.1056 93.1205 11.7335 94.6464 11.7335C95.0602 11.7335 95.4352 11.7727 95.7714 11.851V14.9845C95.5903 14.9323 95.1895 14.9061 94.5688 14.9061C93.4308 14.9061 92.377 15.2391 91.4071 15.9049C90.4373 16.5708 89.6744 17.4717 89.1183 18.6076C88.5623 19.7434 88.2843 20.9903 88.2843 22.3481V31.7094H84.4437V16.9037ZM97.6633 17.1387C97.6633 15.1542 97.5986 13.483 97.4693 12.1252H100.883C100.987 13.0913 101.038 14.2403 101.038 15.572H101.155C101.646 14.3969 102.441 13.4634 103.54 12.7715C104.64 12.0795 105.887 11.7335 107.284 11.7335C108.655 11.7335 109.831 12.0664 110.814 12.7323C111.797 13.3982 112.456 14.3317 112.793 15.5328C113.336 14.3578 114.157 13.4308 115.256 12.7519C116.355 12.073 117.59 11.7335 118.961 11.7335C121.107 11.7335 122.782 12.432 123.985 13.829C125.187 15.226 125.788 17.1518 125.788 19.6063V31.7094H121.948V19.9589C121.948 18.3399 121.605 17.0865 120.92 16.1987C120.234 15.3109 119.258 14.867 117.991 14.867C116.698 14.867 115.644 15.3435 114.829 16.2966C114.015 17.2497 113.607 18.4835 113.607 19.998V31.7094H109.806V20.1155C109.806 16.6165 108.538 14.867 106.004 14.867C105.176 14.867 104.42 15.102 103.734 15.572C103.049 16.042 102.5 16.6818 102.086 17.4913C101.672 18.3007 101.465 19.1755 101.465 20.1155V31.7094H97.6633V17.1387ZM135.245 32.1011C133.719 32.1011 132.348 31.7877 131.133 31.161C129.917 30.5343 129.064 29.6987 128.573 28.6542L131.017 26.97C131.456 27.6489 132.051 28.1842 132.801 28.5759C133.551 28.9676 134.366 29.1634 135.245 29.1634C136.254 29.1634 137.088 28.8762 137.747 28.3017C138.407 27.7273 138.736 26.9961 138.736 26.1083C138.736 25.4033 138.478 24.8223 137.961 24.3653C137.443 23.9083 136.486 23.4187 135.09 22.8965C132.84 22.0348 131.256 21.1535 130.338 20.2526C129.42 19.3518 128.96 18.2355 128.96 16.9037C128.96 15.337 129.575 14.0836 130.803 13.1436C132.032 12.2035 133.667 11.7335 135.711 11.7335C137.029 11.7335 138.232 12.0077 139.318 12.556C140.404 13.1044 141.258 13.8747 141.879 14.867L139.59 16.5904C139.15 15.9637 138.601 15.4871 137.941 15.1607C137.282 14.8343 136.551 14.6711 135.749 14.6711C134.87 14.6711 134.152 14.867 133.596 15.2587C133.04 15.6503 132.762 16.1595 132.762 16.7862C132.762 17.439 133.047 17.9809 133.616 18.4117C134.185 18.8426 135.297 19.3844 136.952 20.0372C139.021 20.8467 140.476 21.6888 141.316 22.5636C142.157 23.4383 142.577 24.5677 142.577 25.9516C142.577 27.8056 141.905 29.294 140.56 30.4168C139.215 31.5397 137.443 32.1011 135.245 32.1011ZM152.732 32.1011C150.921 32.1011 149.505 31.5462 148.484 30.4364C147.462 29.3266 146.952 27.7926 146.952 25.8341V15.102H143.46V12.1252H146.952V7.13367H150.792V12.1252H156.34V15.102H150.792V25.3641C150.792 26.6436 151.044 27.5836 151.549 28.1842C152.053 28.7848 152.822 29.0851 153.857 29.0851C154.891 29.0851 155.809 28.9284 156.611 28.6151L156.844 31.396C155.887 31.8661 154.516 32.1011 152.732 32.1011ZM165.447 32.1011C164.18 32.1011 163.048 31.8399 162.053 31.3177C161.057 30.7955 160.281 30.0708 159.725 29.1439C159.169 28.2169 158.891 27.1659 158.891 25.9908C158.891 24.0063 159.641 22.4852 161.141 21.4277C162.641 20.3701 164.775 19.8414 167.542 19.8414H171.188V18.8622C171.188 17.5565 170.839 16.5512 170.141 15.8462C169.443 15.1412 168.421 14.7886 167.076 14.7886C165.913 14.7886 164.826 15.0171 163.818 15.4741C162.809 15.9311 161.982 16.5904 161.335 17.4521L159.512 15.1412C160.443 14.0444 161.574 13.2023 162.906 12.6148C164.238 12.0273 165.68 11.7335 167.232 11.7335C169.714 11.7335 171.641 12.3406 173.012 13.5548C174.382 14.7691 175.068 16.4859 175.068 18.7055V27.7925C175.068 28.9676 175.223 30.2732 175.533 31.7094H172.158C171.9 31.0827 171.719 30.2079 171.615 29.0851H171.538C170.063 31.0958 168.033 32.1011 165.447 32.1011ZM166.184 29.0851C167.581 29.0851 168.764 28.6999 169.734 27.9296C170.704 27.1593 171.188 26.2258 171.188 25.1291V22.544H167.387C165.861 22.544 164.691 22.8377 163.876 23.4253C163.061 24.0128 162.654 24.868 162.654 25.9908C162.654 26.957 162.971 27.7142 163.604 28.2626C164.238 28.8109 165.098 29.0851 166.184 29.0851ZM187.356 32.1011C184.434 32.1011 182.158 31.2002 180.529 29.3984C178.899 27.5967 178.085 25.103 178.085 21.9173C178.085 18.7055 178.899 16.2052 180.529 14.4165C182.158 12.6278 184.434 11.7335 187.356 11.7335C189.037 11.7335 190.518 12.0599 191.798 12.7127C193.078 13.3655 194.08 14.3056 194.805 15.5328L192.516 17.6088C191.973 16.7209 191.261 16.029 190.382 15.5328C189.503 15.0367 188.546 14.7886 187.511 14.7886C185.753 14.7886 184.382 15.4153 183.399 16.6687C182.417 17.9221 181.925 19.6716 181.925 21.9173C181.925 24.1368 182.417 25.8798 183.399 27.1463C184.382 28.4127 185.753 29.0459 187.511 29.0459C188.546 29.0459 189.503 28.7979 190.382 28.3017C191.261 27.8056 191.973 27.1136 192.516 26.2258L194.805 28.3017C194.08 29.529 193.078 30.469 191.798 31.1219C190.518 31.7747 189.037 32.1011 187.356 32.1011ZM209.615 31.7094L203.447 22.1131L200.77 24.7766V31.7094H196.89V3.56689H200.77V20.1155L208.684 12.1252H213.378L206.046 19.4888L213.959 31.7094H209.615Z" fill="white"></path><path fill-rule="evenodd" clip-rule="evenodd" d="M32.2013 2.12C32.2013 0.949156 31.2491 0 30.0746 0H2.12662C0.952122 0 0 0.949156 0 2.12V33.5477C0 34.7186 0.952122 35.6677 2.12662 35.6677H30.0746C31.2491 35.6677 32.2013 34.7186 32.2013 33.5477V2.12ZM37.5681 4.6368C37.5681 4.04584 37.0876 3.56677 36.4948 3.56677H33.9902V32.1009H36.4948C37.0876 32.1009 37.5681 31.6219 37.5681 31.0309V4.6368ZM42.935 8.20358C42.935 7.61261 42.4544 7.13354 41.8616 7.13354H39.3571V28.5342H41.8616C42.4544 28.5342 42.935 28.0551 42.935 27.4641V8.20358ZM12.8804 26.0074C12.8804 25.9345 12.858 25.8633 12.8162 25.8035C12.7032 25.6419 12.4802 25.6021 12.3181 25.7148L7.30899 29.1945C7.21298 29.2612 7.15576 29.3705 7.15576 29.4871V29.6449C7.15576 29.8349 7.31023 29.9889 7.50079 29.9889H12.5226C12.7202 29.9889 12.8804 29.8292 12.8804 29.6322V26.0074ZM21.428 17.8339C21.428 17.6369 21.2678 17.4772 21.0702 17.4772H12.3254C12.2453 17.4772 12.1675 17.504 12.1045 17.5533L7.29263 21.3185C7.20622 21.3861 7.15576 21.4896 7.15576 21.5991V27.1234C7.15576 27.1956 7.1777 27.266 7.2187 27.3255C7.33063 27.4878 7.55338 27.529 7.71622 27.4174L21.2729 18.1278C21.37 18.0613 21.428 17.9514 21.428 17.8339ZM24.3832 6.06355C24.3832 5.86656 24.223 5.70687 24.0254 5.70687H7.51355C7.31594 5.70687 7.15576 5.86656 7.15576 6.06355V19.2318C7.15576 19.3128 7.18341 19.3914 7.23416 19.4547C7.3576 19.6085 7.58276 19.6334 7.73706 19.5104L24.2489 6.34206C24.3337 6.27438 24.3832 6.1719 24.3832 6.06355Z" fill="white"></path></g></g><defs><clipPath id="clip0_1932_1041"><rect width="214" height="36" fill="white"></rect></clipPath></defs></svg>