<svg xmlns="http://www.w3.org/2000/svg" width="129" height="46" viewBox="0 0 129 46" fill="none"><g clip-path="url(#clip0_1932_1002)"><path d="M0 0V35.8575L4.64886 35.8926V18.8093H15.8632V14.3007H4.64886V4.50854H19.2346V0H0ZM27.6097 7.29128C29.2777 7.29128 30.6618 5.95265 30.6618 4.26197C30.6618 2.57129 29.3131 1.23282 27.6097 1.23282C25.9419 1.23282 24.5578 2.57129 24.5578 4.26197C24.5578 5.95265 25.9063 7.29128 27.6097 7.29128ZM25.232 11.7998V35.8926H29.881V11.7998H25.232ZM47.1282 11.0954C40.9533 11.0954 36.6592 16.2732 36.6592 22.4374C36.6592 28.6015 40.9533 33.7793 47.1282 33.7793C49.9673 33.7793 52.2741 32.7225 53.9775 30.9262V34.1315C54.013 38.1117 50.819 41.4228 46.7734 41.4579C46.7378 41.4579 46.7378 41.4579 46.7023 41.4579C45.2118 41.4579 43.7568 40.8944 42.5858 40.0842L40.2434 44.0997C45.7797 47.6573 53.1612 46.0723 56.7101 40.5773C57.9522 38.6401 58.6263 36.421 58.6263 34.1315V11.8351H53.9775V13.9836C52.2741 12.1873 49.9673 11.0954 47.1282 11.0954ZM41.3082 22.4374C41.3082 18.598 44.2537 15.6039 47.6606 15.6039C51.0674 15.6039 53.9775 18.6332 53.9775 22.4374C53.9775 26.2767 51.032 29.2353 47.6606 29.2353C44.2537 29.2353 41.3082 26.2415 41.3082 22.4374ZM75.3767 15.6039C72.6088 15.6392 70.373 17.8935 70.4084 20.6409V35.8575H65.7595V11.7645H70.4084V13.9836C71.828 12.1168 74.0282 11.0601 76.4059 11.0954C79.6703 11.0954 82.1903 12.6804 83.6101 15.1461C85.2417 12.6452 88.0111 11.1305 90.9909 11.0954C96.2787 11.0954 99.5795 15.3221 99.5795 20.5705V35.8575H94.9665V20.6409C94.9665 17.8935 92.766 15.6392 89.9982 15.6039C87.2304 15.6392 84.9939 17.8935 85.0298 20.6409V35.8575H80.3451V20.6409C80.3451 17.8935 78.1445 15.6392 75.3767 15.6039ZM124.351 14.512C122.221 12.2929 119.241 11.0601 116.152 11.0954C109.233 11.0954 104.336 16.9073 104.336 23.8111C104.336 30.75 109.233 36.5266 116.152 36.5266C119.241 36.5266 122.186 35.2938 124.351 33.11V35.8575H129V11.7645H124.351V14.512ZM108.985 23.8111C108.985 19.232 112.533 15.5687 116.685 15.5687C120.801 15.6039 124.351 19.232 124.351 23.8111C124.351 28.39 120.801 32.0181 116.649 32.0181C112.568 32.0534 108.985 28.4253 108.985 23.8111Z" fill="white"></path></g><defs><clipPath id="clip0_1932_1002"><rect width="129" height="46" fill="white"></rect></clipPath></defs></svg>