<svg xmlns="http://www.w3.org/2000/svg" width="200" height="32" viewBox="0 0 200 32" fill="none"><g clip-path="url(#clip0_1388_383)"><path d="M0 0.345703H18.1464L9.07143 16.06L0 0.345703Z" fill="#FF8EAA"></path><path d="M9.07153 16.06H27.218L18.1465 0.345703L9.07153 16.06Z" fill="#FF8EAA"></path><path d="M0 31.7743H18.1464L9.07143 16.0601L0 31.7743Z" fill="#FF8EAA"></path><path d="M9.07153 16.0601H27.218L18.1465 31.7743L9.07153 16.0601Z" fill="#FF8EAA"></path><path d="M52.5394 27.9313C50.6215 29.1885 48.3251 29.8171 45.6573 29.8171C43.143 29.8171 40.9501 29.2849 39.0858 28.2242C37.218 27.1599 35.7858 25.6385 34.7894 23.6563C33.7894 21.6742 33.293 19.3206 33.293 16.5992C33.293 13.8778 33.793 11.5242 34.7894 9.54206C35.7858 7.55992 37.2144 6.03492 39.068 4.9742C40.9215 3.90992 43.093 3.38135 45.5823 3.38135C48.2537 3.38135 50.5144 3.93849 52.368 5.05278C54.2215 6.16706 55.5001 7.82778 56.2001 10.0313L51.3394 12.0921C50.9251 10.5635 50.2751 9.45992 49.3965 8.78492C48.5144 8.10992 47.3215 7.7742 45.818 7.7742C43.6394 7.7742 41.9358 8.53849 40.7037 10.0706C39.4715 11.5992 38.8573 13.7778 38.8573 16.6028C38.8573 19.4278 39.4537 21.6063 40.6465 23.1349C41.8394 24.6635 43.5251 25.4313 45.7037 25.4313C48.8394 25.4313 50.8108 23.9135 51.6144 20.8813L56.5537 22.3599C55.793 24.8135 54.4573 26.6742 52.5394 27.9313Z" fill="#FF8EAA"></path><path d="M70.8428 11.9959L70.2357 16.2816C69.6893 15.9245 68.9393 15.7459 67.9857 15.7459C66.8178 15.7459 65.8107 16.1673 64.9678 17.0137C64.1214 17.8602 63.7 19.0423 63.7 20.5673V29.8173H58.8071V11.9602H63.0571L63.3786 15.4602C64.3536 12.8887 66.2 11.603 68.9143 11.603C69.7464 11.603 70.3893 11.7352 70.8428 11.9959Z" fill="#FF8EAA"></path><path d="M87.45 14.0673C89.0571 15.7102 89.8607 17.9852 89.8607 20.8887C89.8607 23.7923 89.0571 26.0673 87.45 27.7102C85.8428 29.353 83.5999 30.1745 80.7178 30.1745C77.8357 30.1745 75.5928 29.353 73.9857 27.7102C72.3785 26.0673 71.575 23.7959 71.575 20.8887C71.575 17.9852 72.3785 15.7102 73.9857 14.0673C75.5928 12.4245 77.8357 11.603 80.7178 11.603C83.5964 11.603 85.8428 12.4245 87.45 14.0673ZM77.5571 16.6566C76.8321 17.5959 76.4678 19.0066 76.4678 20.8887C76.4678 22.7709 76.8321 24.1816 77.5571 25.1209C78.2821 26.0602 79.3357 26.5316 80.7178 26.5316C82.0999 26.5316 83.1535 26.0602 83.8785 25.1209C84.6035 24.1816 84.9678 22.7709 84.9678 20.8887C84.9678 19.0066 84.6035 17.5959 83.8785 16.6566C83.1535 15.7173 82.0999 15.2459 80.7178 15.2459C79.3357 15.2459 78.2821 15.7173 77.5571 16.6566Z" fill="#FF8EAA"></path><path d="M120.361 11.96L114.682 29.8171H109.004L105.111 17.21L101.361 29.8171H95.7179L90.0393 11.96H95.2179L98.7893 25.8885L102.789 11.96H107.611L111.611 25.8885L115.182 11.96H120.361Z" fill="#FF8EAA"></path><path d="M138.65 4.13867V29.8172H134.293L134.079 26.4958C133.554 27.6137 132.775 28.5065 131.739 29.1744C130.704 29.8422 129.518 30.1744 128.186 30.1744C125.804 30.1744 123.936 29.3601 122.579 27.728C121.222 26.0958 120.543 23.828 120.543 20.9244C120.543 17.9958 121.222 15.7101 122.579 14.0672C123.936 12.4244 125.804 11.603 128.186 11.603C129.472 11.603 130.589 11.8958 131.543 12.478C132.493 13.0601 133.232 13.8637 133.757 14.8887V4.13867H138.65ZM132.65 25.0315C133.386 24.103 133.757 22.7815 133.757 21.0672V20.7101C133.757 19.0208 133.386 17.703 132.65 16.7637C131.911 15.8244 130.9 15.353 129.614 15.353C128.304 15.353 127.279 15.828 126.543 16.7815C125.804 17.7351 125.436 19.103 125.436 20.8887C125.436 22.6744 125.804 24.0422 126.543 24.9958C127.279 25.9494 128.304 26.4244 129.614 26.4244C130.9 26.4244 131.911 25.9601 132.65 25.0315Z" fill="#FF8EAA"></path><path d="M151.404 19.978H146.582V29.8173H141.293V4.14941H152.611C155.539 4.14941 157.829 4.84227 159.475 6.23156C161.122 7.61727 161.947 9.57084 161.947 12.0851C161.947 13.928 161.493 15.4673 160.586 16.7137C159.679 17.9566 158.382 18.853 156.697 19.3958L163.464 29.8173H157.436L151.404 19.978ZM146.582 15.8958H151.911C153.468 15.8958 154.614 15.5923 155.354 14.9816C156.093 14.3744 156.461 13.4316 156.461 12.1637C156.461 10.8923 156.093 9.95299 155.354 9.34584C154.614 8.7387 153.468 8.43156 151.911 8.43156H146.582V15.8958Z" fill="#FF8EAA"></path><path d="M164.971 6.78153C164.971 5.02082 165.982 4.13867 168.007 4.13867C170.032 4.13867 171.043 5.02082 171.043 6.78153C171.043 8.52082 170.032 9.38867 168.007 9.38867C165.982 9.38867 164.971 8.52082 164.971 6.78153ZM170.436 29.8172H165.543V11.9601H170.436V29.8172Z" fill="#FF8EAA"></path><path d="M193.304 10.1741C193.304 8.34196 194.329 7.42411 196.375 7.42411C197.186 7.42411 197.864 7.60268 198.411 7.95982L199.089 4.70982C198.707 4.42411 198.189 4.19911 197.536 4.03125C196.882 3.86339 196.161 3.78125 195.375 3.78125C193.304 3.78125 191.661 4.29911 190.446 5.33482C189.232 6.37054 188.625 7.86339 188.625 9.81696V11.9598H186.161H185.518H180.518V10.1741C180.518 8.34196 181.543 7.42411 183.589 7.42411C184.4 7.42411 185.079 7.60268 185.625 7.95982L186.304 4.70982C185.921 4.42411 185.404 4.19911 184.75 4.03125C184.096 3.86339 183.375 3.78125 182.589 3.78125C180.518 3.78125 178.875 4.29911 177.661 5.33482C176.446 6.37054 175.839 7.86339 175.839 9.81696V11.9598H172.732V15.6027H175.839V29.817H180.732V15.6027H185.518H186.161H188.625V29.817H193.518V15.6027H198.946V11.9598H193.304V10.1741Z" fill="#FF8EAA"></path></g><defs><clipPath id="clip0_1388_383"><rect width="199.089" height="31.4286" fill="white" transform="translate(0 0.345703)"></rect></clipPath></defs></svg>