<svg xmlns="http://www.w3.org/2000/svg" width="189" height="49" viewBox="0 0 189 49" fill="none"><g clip-path="url(#clip0_1932_1018)"><mask id="mask0_1932_1018" style="mask-type:luminance" maskUnits="userSpaceOnUse" x="0" y="0" width="189" height="49"><path d="M189 0H0V49H189V0Z" fill="white"></path></mask><g mask="url(#mask0_1932_1018)"><path d="M64.3069 31.4542V17.354C64.3069 16.4863 65.0071 15.7813 65.8689 15.7813C66.7308 15.7813 67.431 16.4863 67.431 17.354V31.4542C67.431 32.3219 66.7308 33.0269 65.8689 33.0269C65.061 33.0269 64.3069 32.3219 64.3069 31.4542ZM82.1892 32.0508L75.4026 21.1502V31.4542C75.4026 32.3219 74.7024 33.0269 73.8405 33.0269C72.9788 33.0269 72.2786 32.3219 72.2786 31.4542V17.7879C72.2786 16.6491 73.1942 15.6729 74.3792 15.6729H74.4869C75.1871 15.6729 75.8873 16.0525 76.2643 16.6491L82.9972 27.3869V17.2455C82.9972 16.3779 83.6974 15.6729 84.5592 15.6729C85.421 15.6729 86.1212 16.3779 86.1212 17.2455V30.9118C86.1212 32.0508 85.2056 33.0269 84.0205 33.0269C83.2665 33.0269 82.5662 32.7015 82.1892 32.0508ZM97.0014 18.7098V31.6168C97.0014 32.4303 96.3551 33.0811 95.5471 33.0811H95.3317C94.5237 33.0811 93.8774 32.4303 93.8774 31.6168V18.7098H90.2686C89.4607 18.7098 88.8144 18.059 88.8144 17.2455C88.8144 16.4321 89.4607 15.7813 90.2686 15.7813H100.664C101.472 15.7813 102.118 16.4321 102.118 17.2455C102.118 18.059 101.472 18.7098 100.664 18.7098H97.0014ZM104.596 31.6168V17.1371C104.596 16.3779 105.242 15.7271 105.996 15.7271H115.422C116.177 15.7271 116.823 16.3779 116.823 17.1371C116.823 17.8964 116.177 18.5471 115.422 18.5471H107.72V22.5603H114.345C115.099 22.5603 115.746 23.211 115.746 23.9703C115.746 24.7295 115.099 25.3803 114.345 25.3803H107.72V30.0984H115.422C116.177 30.0984 116.823 30.7492 116.823 31.5084C116.823 32.2677 116.177 32.9184 115.422 32.9184H105.996C105.242 33.0269 104.596 32.4303 104.596 31.6168ZM130.019 32.1049L127.541 26.5191H123.717V31.5084C123.717 32.3761 123.017 33.0811 122.155 33.0811H122.101C121.239 33.0811 120.539 32.3761 120.539 31.5084V17.354C120.539 16.4863 121.239 15.7813 122.101 15.7813H127.811C131.904 15.7813 133.789 18.3845 133.789 21.1502C133.789 23.4822 132.55 25.2718 130.665 25.9769L132.82 30.8577C133.25 31.888 132.55 33.0269 131.419 33.0269C130.827 33.0269 130.235 32.7015 130.019 32.1049ZM127.865 18.4929H123.772V23.6449H127.918C129.696 23.6449 130.719 22.7229 130.719 21.096C130.665 19.7402 129.642 18.4929 127.865 18.4929ZM148.656 31.2915C147.363 32.593 145.586 33.3522 143.754 33.3522C141.923 33.3522 140.199 32.7558 138.906 31.3999C137.021 29.5018 136.752 27.2241 136.752 24.4041C136.752 21.5841 137.021 19.2521 138.906 17.4083C140.199 16.1067 141.923 15.456 143.754 15.456C145.586 15.456 147.363 16.161 148.656 17.4624C149.086 17.9505 149.464 18.4386 149.732 19.0352C150.217 20.0656 149.464 21.2044 148.332 21.2044C147.686 21.2044 147.147 20.8249 146.878 20.2283C146.771 19.9029 146.555 19.6318 146.339 19.3606C145.801 18.6556 144.832 18.276 143.754 18.276C142.784 18.276 141.815 18.7098 141.115 19.4148C139.93 20.6621 139.93 22.7772 139.93 24.4041C139.93 25.9769 139.93 28.1461 141.115 29.3934C141.815 30.0984 142.784 30.5323 143.754 30.5323C144.832 30.5323 145.801 30.1526 146.339 29.4476C146.555 29.1764 146.771 28.8511 146.878 28.5257C147.093 27.9292 147.686 27.5495 148.332 27.5495C149.464 27.5495 150.217 28.6883 149.732 29.7188C149.464 30.3154 149.086 30.8577 148.656 31.2915ZM165.407 31.3999C164.114 32.7015 162.283 33.3522 160.451 33.3522C158.62 33.3522 156.842 32.7015 155.496 31.3999C153.61 29.5018 153.342 27.2241 153.342 24.4041C153.342 21.5841 153.664 19.2521 155.496 17.4083C156.788 16.1067 158.62 15.456 160.451 15.456C162.283 15.456 164.06 16.1067 165.407 17.4083C167.292 19.3064 167.561 21.5841 167.561 24.4041C167.615 27.2241 167.292 29.5561 165.407 31.3999ZM163.198 19.469C162.498 18.764 161.475 18.3302 160.505 18.3302C159.536 18.3302 158.458 18.764 157.812 19.469C156.627 20.7164 156.573 22.8314 156.573 24.4584C156.573 26.031 156.627 28.1461 157.812 29.3934C158.512 30.0984 159.536 30.5323 160.505 30.5323C161.475 30.5323 162.552 30.0984 163.198 29.3934C164.383 28.1461 164.437 26.031 164.437 24.4584C164.437 22.8314 164.383 20.6621 163.198 19.469ZM185.713 31.5084V20.7164L181.673 31.7253C181.458 32.3761 180.811 32.81 180.111 32.81C179.411 32.81 178.818 32.3761 178.55 31.7253L174.509 20.5537V31.5084C174.509 32.3761 173.809 33.0269 173.001 33.0269C172.139 33.0269 171.493 32.3219 171.493 31.5084V18.1133C171.493 16.8117 172.57 15.7271 173.863 15.7271H174.079C175.048 15.7271 175.963 16.3236 176.287 17.2998L180.219 28.0376L184.204 17.2998C184.528 16.3779 185.443 15.7271 186.413 15.7271C187.706 15.7271 188.783 16.8117 188.783 18.1133V31.5084C188.783 32.3761 188.082 33.0269 187.275 33.0269C186.359 33.0269 185.713 32.3761 185.713 31.5084ZM42.4927 0H6.13552C2.74219 0 0.0490723 2.71157 0.0490723 6.07391V42.6801C0.0490723 46.0966 2.74219 48.8082 6.13552 48.8082H42.4927C45.8321 48.8082 48.5252 46.0966 48.5252 42.7343V6.12814C48.5252 2.71157 45.8321 0 42.4927 0ZM30.7506 8.94814C30.7506 8.02623 31.4508 7.32123 32.3666 7.32123C33.2822 7.32123 33.9824 8.02623 33.9824 8.94814V30.6949C33.9824 31.6168 33.2822 32.3219 32.3666 32.3219C31.4508 32.3219 30.7506 31.6168 30.7506 30.6949V8.94814ZM22.6713 8.13474C22.6713 7.21272 23.3715 6.50776 24.2872 6.50776C25.2028 6.50776 25.903 7.21272 25.903 8.13474V31.7253C25.903 32.6473 25.2028 33.3522 24.2872 33.3522C23.3715 33.3522 22.6713 32.6473 22.6713 31.7253V8.13474ZM14.5919 8.94814C14.5919 8.02623 15.2921 7.32123 16.2078 7.32123C17.1234 7.32123 17.8237 8.02623 17.8237 8.94814V30.6949C17.8237 31.6168 17.1234 32.3219 16.2078 32.3219C15.2921 32.3219 14.5919 31.6168 14.5919 30.6949V8.94814ZM6.51257 12.2021C6.51257 11.2801 7.21278 10.5752 8.12844 10.5752C9.04409 10.5752 9.7443 11.2801 9.7443 12.2021V26.8445C9.7443 27.7664 9.04409 28.4714 8.12844 28.4714C7.21278 28.4714 6.51257 27.7664 6.51257 26.8445V12.2021ZM41.5231 37.04C41.2538 37.2569 35.2751 42.3005 24.2872 42.3005C13.2992 42.3005 7.32049 37.2569 7.05118 37.04C6.35097 36.4435 6.29711 35.4131 6.8896 34.7623C7.48209 34.0572 8.50547 34.0031 9.15182 34.5996C9.25954 34.5996 14.5919 39.0466 24.2872 39.0466C34.0901 39.0466 39.3687 34.5996 39.3687 34.5453C40.0689 33.9488 41.0923 34.0572 41.6308 34.7081C42.2772 35.4131 42.1695 36.4435 41.5231 37.04ZM42.0618 26.8445C42.0618 27.7664 41.3615 28.4714 40.4459 28.4714C39.5302 28.4714 38.83 27.7664 38.83 26.8445V12.2021C38.83 11.2801 39.5302 10.5752 40.4459 10.5752C41.3615 10.5752 42.0618 11.2801 42.0618 12.2021V26.8445Z" fill="white"></path></g></g><defs><clipPath id="clip0_1932_1018"><rect width="189" height="49" fill="white"></rect></clipPath></defs></svg>