<svg xmlns="http://www.w3.org/2000/svg" width="133" height="55" viewBox="0 0 133 55" fill="none"><path d="M122.256 23.7056C122.76 21.8474 122.905 19.7865 122.721 17.8617V17.8616C122.085 11.2739 115.632 7.18007 109.43 9.37247C107.253 10.1424 105.687 11.3886 104.608 12.9938C103.529 14.598 102.939 16.557 102.707 18.7498C102.013 25.3533 106.513 30.7191 112.757 30.7239C117.316 30.7288 121.055 28.1129 122.256 23.7056ZM131.14 11.4391C133.704 17.0088 133.592 23.4626 130.956 28.7421C128.32 34.02 123.161 38.1272 115.621 39.0036C109.555 39.7071 103.943 38.4831 99.2015 34.4598C94.0282 30.0666 92.1425 24.2938 92.7633 17.6669C93.7055 7.66966 101.606 0.46195 113.389 0.345703C120.985 0.635162 127.583 3.7022 131.14 11.4391Z" fill="white"></path><path d="M28.683 1.17139H38.4239C38.4239 2.99287 38.4228 4.81439 38.4217 6.63594C38.4185 11.9544 38.4153 17.2731 38.4384 22.5917C38.4432 23.6281 38.5253 24.7064 38.788 25.709V25.7093C39.2843 27.5693 40.3277 29.0084 41.7756 29.9451C43.223 30.8817 45.0704 31.3136 47.1715 31.1679C50.7501 30.9194 53.5066 28.3306 54.0177 24.7016C54.134 23.8678 54.1922 23.0146 54.1922 22.1714C54.2044 16.6728 54.2033 11.1743 54.2024 5.67585C54.202 4.18402 54.2017 2.69218 54.2017 1.20036H54.2139H54.2337H54.2535H54.2736H54.2936H54.3137H54.3339H54.3542H54.3745H54.3949H54.4154H54.4359H54.4564H54.4772H54.4978H54.5186H54.5395H54.5604H54.5814H54.6025H54.6236H54.6448H54.666H54.6873H54.7087H54.7301H54.7516H54.7731H54.7947H54.8164H54.8381H54.8598H54.8818H54.9036H54.9256H54.9475H54.9697H54.9917H55.014H55.0362H55.0584H55.0808H55.1032H55.1257H55.1482H55.1707H55.1933H55.2159H55.2387H55.2615H55.2842H55.3071H55.33H55.3529H55.376H55.399H55.4222H55.4453H55.4685H55.4918H55.5151H55.5384H55.5617H55.5851H55.6087H55.6321H55.6557H55.6792H55.7029H55.7266H55.7503H55.7742H55.7979H55.8218H55.8457H55.8696H55.8936H55.9176H55.9417H55.9656H55.9898H56.0139H56.0382H56.0624H56.0866H56.1109H56.1352H56.1596H56.184H56.2085H56.2329H56.2574H56.2819H56.3064H56.3311H56.3557H56.3803H56.4051H56.4297H56.4545H56.4792H56.504H56.5289H56.5538H56.5786H56.6035H56.6285H56.6534H56.6784H56.7034H56.7285H56.7535H56.7785H56.8037H56.8287H56.8539H56.879H56.9043H56.9295H56.9547H56.98H57.0053H57.0306H57.0558H57.0811H57.1064H57.1319H57.1572H57.1826H57.208H57.2334H57.2589H57.2843H57.3097H57.3353H57.3607H57.3863H57.4117H57.4373H57.4628H57.4884H57.514H57.5395H57.5651H57.5906H57.6163H57.6419H57.6676H57.6932H57.7189H57.7444H57.7701H57.7957H57.8214H57.8471H57.8728H57.8983H57.924H57.9497H57.9754H58.0011H58.0268H58.0525H58.0782H58.1039H58.1296H58.1553H58.181H58.2065H58.2322H58.2579H58.2836H58.3093H58.335H58.3607H58.3864H58.4119H58.4376H58.4633H58.4889H58.5146H58.5401H58.5658H58.5914H58.6171H58.6427H58.6682H58.6938H58.7193H58.7449H58.7705H58.796H58.8216H58.8472H58.8726H58.8981H58.9236H58.949H58.9744H58.9999H59.0253H59.0507H59.0761H59.1014H59.1269H59.1522H59.1775H59.2029H59.228H59.2533H59.2786H59.3038H59.3291H59.3543H59.3794H59.4046H59.4296H59.4548H59.4798H59.5048H59.5299H59.5549H59.5799H59.6048H59.6298H59.6547H59.6795H59.7044H59.7293H59.7541H59.7788H59.8036H59.8282H59.853H59.8776H59.9022H59.9267H59.9514H59.9759H60.0004H60.0249H60.0492H60.0737H60.0981H60.1223H60.1467H60.1709H60.1951H60.2194H60.2435H60.2676H60.2917H60.3157H60.3397H60.3637H60.3876H60.4115H60.4353H60.4591H60.4828H60.5065H60.5302H60.5539H60.5775H60.601H60.6246H60.648H60.6715H60.6948H60.7182H60.7415H60.7647H60.7878H60.811H60.8342H60.8572H60.8802H60.9031H60.926H60.9489H60.9717H60.9945H61.0172H61.0399H61.0625H61.085H61.1075H61.13H61.1524H61.1747H61.197H61.2192H61.2414H61.2635H61.2855H61.3076H61.3296H61.3514H61.3732H61.3951H61.4168H61.4383H61.46H61.4815H61.503H61.5245H61.5458H61.5671H61.5884H61.6095H61.6306H61.6516H61.6726H61.6935H61.7144H61.7352H61.7559H61.7766H61.7971H61.8176H61.8381H61.8585H61.8789H61.8991H61.9193H61.9394H61.9594H61.9794H61.9994H62.0192H62.0389H62.0586H62.0782H62.0977H62.1172H62.1366H62.1559H62.1752H62.1944H62.2134H62.2325H62.2514H62.2703H62.289H62.3078H62.3265H62.345H62.3635H62.3818H62.4001H62.4183H62.4366H62.4547H62.4726H62.4905H62.5083H62.526H62.5437H62.5613H62.5787H62.5962H62.6135H62.6308H62.648H62.665H62.6819H62.6988H62.7156H62.7324H62.749H62.7655H62.782H62.7983H62.8147H62.8308H62.8469H62.8629H62.8788H62.8945H62.9102H62.926H62.9414H62.9568H62.9723H62.9875H63.0026H63.0177H63.0326H63.0475H63.0623H63.0769H63.0914H63.106H63.1203H63.1346H63.1488H63.1628H63.1768H63.1906H63.2045H63.2181H63.2316H63.2451H63.2585H63.2717H63.2849H63.2979H63.3108H63.3236H63.3364H63.3491H63.3616H63.374H63.3862H63.3984H63.4106H63.4224H63.4344H63.4461H63.4577H63.4693H63.4807H63.492H63.5032H63.5143H63.5252H63.5361H63.5469H63.5574H63.5679H63.5784H63.5887H63.5988H63.6089H63.6188H63.6286H63.6384H63.6479H63.6574H63.6667H63.6759H63.6851H63.694H63.7029H63.7116H63.7202H63.7288H63.7371H63.7454H63.7535H63.7615H63.7694H63.7771H63.7848H63.7923H63.7996H63.8069H63.814H63.821H63.8279H63.8346H63.8413H63.8478H63.854H63.8603H63.8664H63.8724H63.8781H63.8838H63.8894H63.8949H63.9002H63.9054H63.9103H63.9153H63.9201H63.9247H63.9291H63.9323C63.9326 3.19912 63.9448 5.19866 63.9572 7.19843C63.9918 12.8319 64.0264 18.4671 63.7924 24.0906C63.4609 32.1782 57.5531 38.0795 49.4903 38.9986C44.5637 39.5625 39.8802 38.969 35.6503 36.2318C31.3149 33.4226 28.9098 29.3227 28.7657 24.2219C28.6571 20.4438 28.6366 14.6649 28.6432 9.8298C28.6465 7.4124 28.6567 5.23118 28.666 3.65431C28.6705 2.86588 28.675 2.22854 28.6782 1.7883C28.6798 1.5682 28.6813 1.39736 28.6822 1.28155L28.683 1.17139Z" fill="white"></path><path d="M89.7066 9.18843V9.18482V9.16909V9.15336V9.13763V9.12189V9.10615V9.09043V9.07469V9.05897V9.04324V9.0275V9.01178V8.99604V8.98032V8.96458V8.94885V8.93313V8.91739V8.90167V8.88593V8.87021V8.85448V8.83874V8.82302V8.80729V8.79155V8.77583V8.76009V8.74437V8.72864V8.71291V8.69718V8.68144V8.66572V8.64998V8.63425V8.61852V8.60279V8.58705V8.57133V8.55559V8.53987V8.52413V8.5084V8.49267V8.47693V8.4612V8.44547V8.42973V8.41399V8.39826V8.38253V8.36679V8.35105V8.33531V8.31957V8.30384V8.2881V8.27236V8.25662V8.24088V8.22515V8.20941V8.19367V8.17792V8.16218V8.14644V8.13069V8.11495V8.0992V8.08346V8.06771V8.05197V8.03622V8.02047V8.00472V7.98898V7.97323V7.95748V7.94173V7.92598V7.91022V7.89446V7.87871V7.86296V7.84721V7.83144V7.81569V7.79992V7.78416V7.76841V7.75264V7.73688V7.72111V7.70535V7.68958V7.67382V7.65805V7.64229V7.62651V7.61075V7.59498V7.5792V7.56343V7.54766V7.53188V7.5161V7.50033V7.48455V7.46877V7.45299V7.4372V7.42142V7.40563V7.38985V7.37406V7.35827V7.34249V7.3267V7.31091V7.29511V7.27931V7.26352V7.23192V5.19391V5.16173V5.14565V5.12956V5.11346V5.09736V5.08126V5.06516V5.04905V5.03294V5.01682V5.00071V4.9846V4.96847V4.95234V4.93622V4.92008V4.90395V4.88781V4.87166V4.85552V4.83937V4.82321V4.80706V4.79091V4.77474V4.75857V4.74241V4.72624V4.71006V4.69388V4.6777V4.66151V4.64531V4.62912V4.61292V4.59673V4.58052V4.56432V4.54811V4.53189V4.51567V4.49945V4.48323V4.467V4.45076V4.43453V4.41828V4.40205V4.3858V4.36954V4.35329V4.33703V4.32077V4.3045V4.28824V4.27197V4.25569V4.2394V4.22312V4.20683V4.19054V4.17424V4.15794V4.14164V4.12533V4.10901V4.0927V4.07639V4.06006V4.04373V4.0274V4.01106V3.99472V3.97838V3.96203V3.94569V3.92933V3.91296V3.8966V3.88023V3.86386V3.84748V3.8311V3.81472V3.79834V3.78194V3.76555V3.74914V3.73273V3.71633V3.69992V3.6835V3.66708V3.65064V3.63422V3.61777V3.60134V3.58489V3.56844V3.55199V3.53553V3.51907V3.50261V3.48614V3.46966V3.45319V3.4367V3.42021V3.40372V3.38722V3.37072V3.35422V3.3377V3.32119V3.30467V3.28814V3.27162V3.25509V3.23855V3.222V3.20546V3.18891V3.17235V3.15578V3.13923V3.12265V3.10608V3.0895V3.07291V3.05632V3.03972V3.02313V3.00653V2.98993V2.9733V2.95668V2.94006V2.92344V2.9068V2.89017V2.87352V2.85688V2.84022V2.82357V2.80691V2.79023V2.77356V2.75688V2.74021V2.72352V2.70683V2.69013V2.67342V2.65672V2.64V2.62329V2.60656V2.58983V2.5731V2.55636V2.53962V2.52287V2.50612V2.48936V2.47259V2.45582V2.43905V2.42227V2.40549V2.38869V2.3719V2.3551V2.33829V2.32148V2.30467V2.28785V2.27101V2.25419V2.23734V2.2205V2.20365V2.1868V2.16994V2.15308V2.1362V2.11932V2.10245V2.08556V2.06867V2.05176V2.03486V2.01794V2.00103V1.98411V1.96718V1.95025V1.93332V1.91638V1.89942V1.88246V1.86551V1.84854V1.83157V1.8146V1.79761V1.78061V1.76363V1.74662V1.72962V1.7126V1.69559V1.67856V1.66153V1.64449V1.62745V1.6104V1.59335V1.5763V1.55924V1.54216V1.52508V1.508V1.49091V1.47381V1.45672V1.4396V1.4225V1.40538V1.38825V1.37112V1.35399V1.33684V1.31968V1.30254V1.28537V1.26821V1.25103V1.23385V1.21666V1.19947V1.18227V1.16506V1.14785V1.13064V1.11342V1.09619V1.07895V1.0617V1.04446V1.0272V1.01562C89.0675 1.08636 88.4361 1.14595 87.8113 1.20492C86.3904 1.339 85.0034 1.46989 83.6373 1.72148C79.6311 2.46318 76.5249 4.10183 74.4077 6.53776C72.2906 8.97341 71.157 12.2122 71.1065 16.1646C71.0429 21.1639 71.0582 26.1604 71.0737 31.1586C71.0804 33.364 71.0872 35.5698 71.0872 37.7763C71.0872 37.9333 71.1028 38.0885 71.1207 38.2648C71.1269 38.3263 71.1333 38.3903 71.1394 38.4579H71.1558H71.1751H71.1944H71.2137H71.233H71.2523H71.2716H71.2909H71.3102H71.3295H71.3488H71.368H71.3873H71.4066H71.4259H71.4452H71.4645H71.4838H71.5031H71.5223H71.5416H71.5609H71.5802H71.5995H71.6187H71.638H71.6573H71.6766H71.6958H71.7151H71.7344H71.7537H71.7729H71.7922H71.8115H71.8307H71.85H71.8693H71.8884H71.9077H71.927H71.9462H71.9655H71.9848H72.004H72.0233H72.0425H72.0618H72.0811H72.1002H72.1195H72.1387H72.158H72.1772H72.1965H72.2157H72.235H72.2541H72.2735H72.2928H72.3119H72.3311H72.3504H72.3696H72.3889H72.408H72.4274H72.4465H72.4658H72.485H72.5043H72.5235H72.5426H72.562H72.5811H72.6004H72.6196H72.6388H72.6581H72.6772H72.6965H72.7157H72.7349H72.7542H72.7734H72.7925H72.8118H72.831H72.8502H72.8695H72.8887H72.9078H72.927H72.9463H72.9655H72.9846H73.004H73.0231H73.0423H73.0615H73.0808H73.0999H73.1191H73.1383H73.1576H73.1768H73.1959H73.2151H73.2344H73.2536H73.2727H73.2919H73.3112H73.3304H73.3496H73.3687H73.3879H73.4072H73.4264H73.4456H73.4647H73.4839H73.5031H73.5224H73.5415H73.5607H73.5799H73.5991H73.6182H73.6375H73.6567H73.6759H73.695H73.7142H73.7334H73.7526H73.7719H73.791H73.8102H73.8294H73.8486H73.8677H73.8869H73.9062H73.9254H73.9445H73.9637H73.9829H74.0021H74.0212H74.0404H74.0596H74.0789H74.098H74.1172H74.1364H74.1556H74.1747H74.1939H74.2131H74.2322H74.2514H74.2707H74.2899H74.3091H74.3282H74.3474H74.3666H74.3857H74.4049H74.4241H74.4433H74.4624H74.4817H74.5009H74.5201H74.5392H74.5584H74.5776H74.5968H74.6159H74.6351H74.6543H74.6734H74.6927H74.7119H74.7311H74.7503H74.7694H74.7886H74.8078H74.8269H74.8461H74.8653H74.8845H74.9038H74.9229H74.9421H74.9613H74.9805H74.9996H75.0188H75.038H75.0571H75.0764H75.0956H75.1148H75.1339H75.1531H75.1723H75.1915H75.2106H75.2298H75.2491H75.2683H75.2875H75.3066H75.3258H75.345H75.3641H75.3834H75.4026H75.4218H75.441H75.4601H75.4793H75.4985H75.5178H75.5369H75.5561H75.5753H75.5945H75.6138H75.6329H75.6521H75.6713H75.6905H75.7096H75.7289H75.7481H75.7673H75.7864H75.8057H75.8249H75.8441H75.8633H75.8824H75.9017H75.9209H75.9401H75.9592H75.9785H75.9977H76.0169H76.0361H76.0554H76.0745H76.0937H76.113H76.1322H76.1514H76.1705H76.1898H76.209H76.2282H76.2475H76.2666H76.2858H76.3051H76.3243H76.3435H76.3628H76.3819H76.4012H76.4204H76.4396H76.4589H76.4781H76.4972H76.5165H76.5357H76.555H76.5742H76.5935H76.6127H76.6318H76.6511H76.6703H76.6896H76.7088H76.7281H76.7473H76.7666H76.7857H76.805H76.8242H76.8435H76.8627H76.882H76.9012H76.9205H76.9396H76.9589H76.9782H76.9974H77.0167H77.0359H77.0552H77.0745H77.0937H77.113H77.1321H77.1515H77.1708H77.1899H77.2092H77.2285H77.2477H77.267H77.2863H77.3055H77.3248H77.3441H77.3634H77.3826H77.4019H77.4212H77.4405H77.4597H77.479H77.4983H77.5176H77.5369H77.556H77.5753H77.5947H77.614H77.6333H77.6526H77.6719H77.691H77.7103H77.7296H77.749H77.7683H77.7876H77.8069H77.8262H77.8455H77.8648H77.8841H77.9034H77.9227H77.942H77.9613H77.9806H77.9999H78.0192H78.0385H78.0578H78.0771H78.0966H78.1159H78.1352H78.1545H78.1738H78.1931H78.2124H78.2318H78.2511H78.2704H78.2897H78.309H78.3285H78.3478H78.3671H78.3865H78.4058H78.4251H78.4444H78.4639H78.4832H78.5026H78.5219H78.5412H78.5607H78.58H78.5993H78.6187H78.638H78.6575H78.6768H78.6962H78.7155H78.7349H78.7542H78.7737H78.793H78.8124H78.8317H78.8512H78.8706H78.8899H78.9093H78.9288H78.9481H78.9675H78.987H79.0063H79.0257H79.0451H79.0644H79.0839H79.1033H79.1228H79.1422H79.1615H79.1809H79.2004H79.2198H79.2392H79.2587H79.2781H79.2974H79.3169H79.3363H79.3557H79.3752H79.3946H79.4141H79.4335H79.4529H79.4724H79.4918H79.5112H79.5308H79.5502H79.5697H79.5891H79.6086H79.628H79.6474H79.667H79.6864H79.7059H79.7253H79.7449H79.7643H79.7838H79.8032H79.8228H79.8422H79.8618H79.8812H79.9007H79.9202H79.9397H79.9592H79.9787H79.9982H80.0177H80.0372H80.0567H80.0763H80.0957H80.1153H80.1347H80.1543H80.1738H80.1933H80.2129H80.2324H80.2519H80.2714H80.291H80.3106H80.33H80.3496H80.3691H80.3887H80.4083H80.4279H80.4473H80.4669H80.4864H80.506H80.5256H80.5452H80.5647H80.5843H80.6039H80.6234H80.643H80.6626H80.6823H80.7018H80.7214H80.741H80.7606H80.7801H80.7998H80.8194H80.839H80.8585H80.8783H80.8901V38.4554V38.4524V38.4496V38.4467V38.4439V38.4409V38.4381V38.4352V38.4323V38.4295V38.4266V38.4238V38.4208V38.418V38.4152V38.4123V38.4094V38.4066V38.4037V38.4009V38.3981V38.3952V38.3923V38.3895V38.3867V38.3839V38.3809V38.3781V38.3753V38.3725V38.3697V38.3667V38.3639V38.3611V38.3583V38.3555V38.3527V38.3498V38.347V38.3442V38.3413V38.3385V38.3356V38.3328V38.33V38.3272V38.3244V38.3216V38.3188V38.316V38.3131V38.3103V38.3075V38.3047V38.3019V38.2991V38.2964V38.2936V38.2908V38.288V38.2851V38.2823V38.2795V38.2767V38.274V38.2712V38.2684V38.2656V38.2628V38.26V38.2573V38.2545V38.2517V38.2488V38.2462V38.2434V38.2405V38.2377V38.2351V38.2322V38.2294V38.2267V38.2239V38.2211V38.2184V38.2156V38.2128V38.2101V38.2073V38.2045V38.2018V38.199V38.1963V38.1935V38.1909V38.188V38.1852V38.1825V38.1797V38.1771V38.1742V38.1716V38.1688V38.1661V38.1633V38.1606V38.1578V38.1551V38.1523V38.1496V38.1469V38.1441V38.1414V38.1386V38.1359V38.1333V38.1304V38.1278V38.125V38.1223V38.1196V38.1168V38.1141V38.1114V38.1086V38.1059V38.1033V38.1004V38.0978V38.0951V38.0924V38.0896V38.0869V38.0842V38.0816V38.0787V38.0761V38.0734V38.0707V38.068V38.0652V38.0625V38.0599V38.0572V38.0545V38.0517V38.049V38.0463V38.0437V38.041V38.0383V38.0356V38.0329V38.0301V38.0274V38.0248V38.0221V38.0194V38.0167V38.014V38.0114V38.0087V38.006V38.0033V38.0007V37.998V37.9953V37.9926V37.9899V37.9873V37.9846V37.9819V37.9792V37.9766V37.9739V37.9712V37.9685V37.9658V37.9632V37.9605V37.9578V37.9552V37.9526V37.9499V37.9472V37.9445V37.9419V37.9392V37.9365V37.9339V37.9313V37.9286V37.9259V37.9232V37.9206V37.918V37.9153V37.9127V37.91V37.9073V37.9048V37.9021V37.8994V37.8967V37.8942V37.8915V37.8888V37.8861V37.8836V37.8809V37.8782V37.8756V37.873V37.8703V37.8676V37.8651V37.8624V37.8598V37.8572V37.8545V37.8518V37.8493V37.8466V37.8439V37.8414V37.8387V37.836V37.8335V37.8308V37.8281V37.8256V37.8229V37.8204V37.8177V37.815V37.8125V37.8098V37.8072V37.8046V37.802V37.7993V37.7967V37.7941V37.7914V37.7889V37.7862V37.7837V37.781V37.7785V37.7758V37.7732V37.7705V37.768V37.7653V37.7628V37.7601V37.7576V37.7549V37.7523V37.7496V37.7471V37.7444V37.7419V37.7393V37.7367V37.7341V37.7314V37.7289V37.7262V37.7237V37.7211V37.7184V37.7159V37.7132V37.7107V37.7081V37.7054V37.7029V37.7004V37.6977V37.6951V37.6925V37.6899V37.6874V37.6847V37.6821V37.6796V37.6769V37.6744V37.6718V37.6692V37.6666V37.6641V37.6614V37.6588V37.6563V37.6536V37.6511V37.6485V37.646V37.6433V37.6408V37.6382V37.6355V37.633V37.6304V37.6279V37.6252V37.6227V37.6201V37.6176V37.6149V37.6124V37.6098V37.6073V37.6046V37.602V37.5995V37.597V37.5943V37.5917V37.5892V37.5866V37.5841V37.5814V37.5789V37.5763V37.5738V37.5712V37.5686V37.566V37.5635V37.5609V37.5584V37.5557V37.5532V37.5506V37.5481V37.5455V37.543V37.5403V37.5378V37.5352V37.5327V37.5301V37.5276V37.525V37.5224V37.5198V37.5173V37.5147V37.5122V37.5096V37.5071V37.5045V37.5019V37.4993V37.4968V37.4942V37.4917V37.4891V37.4866V37.4841V37.4815V37.4788V37.4763V37.4737V37.4712V37.4686V37.4661V37.4636V37.461V37.4585V37.4559V37.4534V37.4507V37.4482V37.4456V37.4431V37.4405V37.438V37.4354V37.4329V37.4303V37.4278V37.4252V37.4227V37.4202V37.4176V37.4151V37.4125V37.4098V37.4073V37.4048V37.4022V37.3997V37.3971V37.3946V37.392V37.3895V37.3869V37.3844V37.3819V37.3793V37.3768V37.3742V37.3717V37.3691V37.3666V37.364V37.3615V37.3589V37.3564V37.3539V37.3513V37.3488V37.3462V37.3437V37.3411V37.3386V37.336V37.3335V37.331V37.3284V37.3259V37.3233V37.3208V37.3182V37.3157V37.3131V37.3106V37.3079V37.3054V37.3028V37.3003V37.2977V37.2952V37.2926V37.2901V37.2876V37.285V37.2825V37.2799V37.2774V37.2748V37.2723V37.2697V37.2672V37.2647V37.2621V37.2596V37.257V37.2545V37.2519V37.2494V37.2468V37.2443V37.2417V37.2392V37.2367V37.2341V37.2316V37.229V37.2265V37.2239V37.2214V37.2188V37.2163V37.2138V37.2112V37.2087V37.2061V37.2036V37.201V37.1985V37.1959V37.1934V37.1908V37.1883V37.1858V37.1832V37.1807V37.1781V37.1756V37.173V37.1705V37.1679V37.1654V37.1629C80.8901 35.3071 80.888 33.4515 80.8858 31.5961C80.8801 26.6488 80.8744 21.703 80.9094 16.7574L80.976 16.7578C81.0001 12.7831 83.1861 10.2813 87.0949 9.59066L89.7066 9.18843ZM89.7066 9.18843C89.4447 9.2203 89.1875 9.24903 88.9336 9.27737C88.3002 9.34811 87.6888 9.41639 87.0833 9.52472L89.7066 9.18843Z" fill="white"></path><path d="M0 45.0778C0.320971 45.0901 0.647507 45.0885 0.978995 45.0724C4.02094 44.9259 6.06482 44.1003 7.40833 42.7421C8.75125 41.3846 9.38469 39.5049 9.62686 37.271C9.71872 36.4284 9.76719 35.5808 9.76719 34.7331C9.77504 28.4824 9.77624 20.0752 9.77557 13.2307C9.77517 9.80846 9.77424 6.77687 9.77344 4.60086C9.77304 3.51284 9.77278 2.63873 9.77238 2.0366L9.77211 1.34469L9.77198 1.17139H20.1009C20.101 4.03369 20.1013 6.89597 20.1017 9.75826C20.1026 18.2151 20.1035 26.672 20.0961 35.1289C20.0913 41.0486 18.1864 46.1617 13.5383 49.9958C9.59212 53.2483 4.97744 54.488 0 54.3329V45.0778Z" fill="white"></path></svg>